<?xml version="1.0" encoding="utf-8" standalone="no"?>
<!DOCTYPE svg PUBLIC "-//W3C//DTD SVG 1.1//EN"
  "http://www.w3.org/Graphics/SVG/1.1/DTD/svg11.dtd">
<svg xmlns:xlink="http://www.w3.org/1999/xlink" width="714.35pt" height="384.107469pt" viewBox="0 0 714.35 384.107469" xmlns="http://www.w3.org/2000/svg" version="1.1">
 <metadata>
  <rdf:RDF xmlns:dc="http://purl.org/dc/elements/1.1/" xmlns:cc="http://creativecommons.org/ns#" xmlns:rdf="http://www.w3.org/1999/02/22-rdf-syntax-ns#">
   <cc:Work>
    <dc:type rdf:resource="http://purl.org/dc/dcmitype/StillImage"/>
    <dc:date>2024-01-03T13:12:12.820401</dc:date>
    <dc:format>image/svg+xml</dc:format>
    <dc:creator>
     <cc:Agent>
      <dc:title>Matplotlib v3.8.1, https://matplotlib.org/</dc:title>
     </cc:Agent>
    </dc:creator>
   </cc:Work>
  </rdf:RDF>
 </metadata>
 <defs>
  <style type="text/css">*{stroke-linejoin: round; stroke-linecap: butt}</style>
 </defs>
 <g id="figure_1">
  <g id="patch_1">
   <path d="M 0 384.107469 
L 714.35 384.107469 
L 714.35 0 
L 0 0 
z
" style="fill: #ffffff"/>
  </g>
  <g id="axes_1">
   <g id="patch_2">
    <path d="M 24.6 319.35325 
L 707.15 319.35325 
L 707.15 49.21125 
L 24.6 49.21125 
z
" style="fill: #eaeaf2"/>
   </g>
   <g id="matplotlib.axis_1">
    <g id="xtick_1">
     <g id="line2d_1"/>
     <g id="text_1">
      <!-- 20% -->
      <g style="fill: #262626" transform="translate(85.097532 330.011062) scale(0.1 -0.1)">
       <defs>
        <path id="ArialMT-32" d="M 3222 541 
L 3222 0 
L 194 0 
Q 188 203 259 391 
Q 375 700 629 1000 
Q 884 1300 1366 1694 
Q 2113 2306 2375 2664 
Q 2638 3022 2638 3341 
Q 2638 3675 2398 3904 
Q 2159 4134 1775 4134 
Q 1369 4134 1125 3890 
Q 881 3647 878 3216 
L 300 3275 
Q 359 3922 746 4261 
Q 1134 4600 1788 4600 
Q 2447 4600 2831 4234 
Q 3216 3869 3216 3328 
Q 3216 3053 3103 2787 
Q 2991 2522 2730 2228 
Q 2469 1934 1863 1422 
Q 1356 997 1212 845 
Q 1069 694 975 541 
L 3222 541 
z
" transform="scale(0.015625)"/>
        <path id="ArialMT-30" d="M 266 2259 
Q 266 3072 433 3567 
Q 600 4063 929 4331 
Q 1259 4600 1759 4600 
Q 2128 4600 2406 4451 
Q 2684 4303 2865 4023 
Q 3047 3744 3150 3342 
Q 3253 2941 3253 2259 
Q 3253 1453 3087 958 
Q 2922 463 2592 192 
Q 2263 -78 1759 -78 
Q 1097 -78 719 397 
Q 266 969 266 2259 
z
M 844 2259 
Q 844 1131 1108 757 
Q 1372 384 1759 384 
Q 2147 384 2411 759 
Q 2675 1134 2675 2259 
Q 2675 3391 2411 3762 
Q 2147 4134 1753 4134 
Q 1366 4134 1134 3806 
Q 844 3388 844 2259 
z
" transform="scale(0.015625)"/>
        <path id="ArialMT-25" d="M 372 3481 
Q 372 3972 619 4315 
Q 866 4659 1334 4659 
Q 1766 4659 2048 4351 
Q 2331 4044 2331 3447 
Q 2331 2866 2045 2552 
Q 1759 2238 1341 2238 
Q 925 2238 648 2547 
Q 372 2856 372 3481 
z
M 1350 4272 
Q 1141 4272 1002 4090 
Q 863 3909 863 3425 
Q 863 2984 1003 2804 
Q 1144 2625 1350 2625 
Q 1563 2625 1702 2806 
Q 1841 2988 1841 3469 
Q 1841 3913 1700 4092 
Q 1559 4272 1350 4272 
z
M 1353 -169 
L 3859 4659 
L 4316 4659 
L 1819 -169 
L 1353 -169 
z
M 3334 1075 
Q 3334 1569 3581 1911 
Q 3828 2253 4300 2253 
Q 4731 2253 5014 1945 
Q 5297 1638 5297 1041 
Q 5297 459 5011 145 
Q 4725 -169 4303 -169 
Q 3888 -169 3611 142 
Q 3334 453 3334 1075 
z
M 4316 1866 
Q 4103 1866 3964 1684 
Q 3825 1503 3825 1019 
Q 3825 581 3965 400 
Q 4106 219 4313 219 
Q 4528 219 4667 400 
Q 4806 581 4806 1063 
Q 4806 1506 4665 1686 
Q 4525 1866 4316 1866 
z
" transform="scale(0.015625)"/>
       </defs>
       <use xlink:href="#ArialMT-32"/>
       <use xlink:href="#ArialMT-30" x="55.615234"/>
       <use xlink:href="#ArialMT-25" x="111.230469"/>
      </g>
     </g>
    </g>
    <g id="xtick_2">
     <g id="line2d_2"/>
     <g id="text_2">
      <!-- 30% -->
      <g style="fill: #262626" transform="translate(163.449087 330.011062) scale(0.1 -0.1)">
       <defs>
        <path id="ArialMT-33" d="M 269 1209 
L 831 1284 
Q 928 806 1161 595 
Q 1394 384 1728 384 
Q 2125 384 2398 659 
Q 2672 934 2672 1341 
Q 2672 1728 2419 1979 
Q 2166 2231 1775 2231 
Q 1616 2231 1378 2169 
L 1441 2663 
Q 1497 2656 1531 2656 
Q 1891 2656 2178 2843 
Q 2466 3031 2466 3422 
Q 2466 3731 2256 3934 
Q 2047 4138 1716 4138 
Q 1388 4138 1169 3931 
Q 950 3725 888 3313 
L 325 3413 
Q 428 3978 793 4289 
Q 1159 4600 1703 4600 
Q 2078 4600 2393 4439 
Q 2709 4278 2876 4000 
Q 3044 3722 3044 3409 
Q 3044 3113 2884 2869 
Q 2725 2625 2413 2481 
Q 2819 2388 3044 2092 
Q 3269 1797 3269 1353 
Q 3269 753 2831 336 
Q 2394 -81 1725 -81 
Q 1122 -81 723 278 
Q 325 638 269 1209 
z
" transform="scale(0.015625)"/>
       </defs>
       <use xlink:href="#ArialMT-33"/>
       <use xlink:href="#ArialMT-30" x="55.615234"/>
       <use xlink:href="#ArialMT-25" x="111.230469"/>
      </g>
     </g>
    </g>
    <g id="xtick_3">
     <g id="line2d_3"/>
     <g id="text_3">
      <!-- 40% -->
      <g style="fill: #262626" transform="translate(241.800641 330.011062) scale(0.1 -0.1)">
       <defs>
        <path id="ArialMT-34" d="M 2069 0 
L 2069 1097 
L 81 1097 
L 81 1613 
L 2172 4581 
L 2631 4581 
L 2631 1613 
L 3250 1613 
L 3250 1097 
L 2631 1097 
L 2631 0 
L 2069 0 
z
M 2069 1613 
L 2069 3678 
L 634 1613 
L 2069 1613 
z
" transform="scale(0.015625)"/>
       </defs>
       <use xlink:href="#ArialMT-34"/>
       <use xlink:href="#ArialMT-30" x="55.615234"/>
       <use xlink:href="#ArialMT-25" x="111.230469"/>
      </g>
     </g>
    </g>
    <g id="xtick_4">
     <g id="line2d_4"/>
     <g id="text_4">
      <!-- 50% -->
      <g style="fill: #262626" transform="translate(320.152195 330.011062) scale(0.1 -0.1)">
       <defs>
        <path id="ArialMT-35" d="M 266 1200 
L 856 1250 
Q 922 819 1161 601 
Q 1400 384 1738 384 
Q 2144 384 2425 690 
Q 2706 997 2706 1503 
Q 2706 1984 2436 2262 
Q 2166 2541 1728 2541 
Q 1456 2541 1237 2417 
Q 1019 2294 894 2097 
L 366 2166 
L 809 4519 
L 3088 4519 
L 3088 3981 
L 1259 3981 
L 1013 2750 
Q 1425 3038 1878 3038 
Q 2478 3038 2890 2622 
Q 3303 2206 3303 1553 
Q 3303 931 2941 478 
Q 2500 -78 1738 -78 
Q 1113 -78 717 272 
Q 322 622 266 1200 
z
" transform="scale(0.015625)"/>
       </defs>
       <use xlink:href="#ArialMT-35"/>
       <use xlink:href="#ArialMT-30" x="55.615234"/>
       <use xlink:href="#ArialMT-25" x="111.230469"/>
      </g>
     </g>
    </g>
    <g id="xtick_5">
     <g id="line2d_5"/>
     <g id="text_5">
      <!-- 60% -->
      <g style="fill: #262626" transform="translate(398.50375 330.011062) scale(0.1 -0.1)">
       <defs>
        <path id="ArialMT-36" d="M 3184 3459 
L 2625 3416 
Q 2550 3747 2413 3897 
Q 2184 4138 1850 4138 
Q 1581 4138 1378 3988 
Q 1113 3794 959 3422 
Q 806 3050 800 2363 
Q 1003 2672 1297 2822 
Q 1591 2972 1913 2972 
Q 2475 2972 2870 2558 
Q 3266 2144 3266 1488 
Q 3266 1056 3080 686 
Q 2894 316 2569 119 
Q 2244 -78 1831 -78 
Q 1128 -78 684 439 
Q 241 956 241 2144 
Q 241 3472 731 4075 
Q 1159 4600 1884 4600 
Q 2425 4600 2770 4297 
Q 3116 3994 3184 3459 
z
M 888 1484 
Q 888 1194 1011 928 
Q 1134 663 1356 523 
Q 1578 384 1822 384 
Q 2178 384 2434 671 
Q 2691 959 2691 1453 
Q 2691 1928 2437 2201 
Q 2184 2475 1800 2475 
Q 1419 2475 1153 2201 
Q 888 1928 888 1484 
z
" transform="scale(0.015625)"/>
       </defs>
       <use xlink:href="#ArialMT-36"/>
       <use xlink:href="#ArialMT-30" x="55.615234"/>
       <use xlink:href="#ArialMT-25" x="111.230469"/>
      </g>
     </g>
    </g>
    <g id="xtick_6">
     <g id="line2d_6"/>
     <g id="text_6">
      <!-- 70% -->
      <g style="fill: #262626" transform="translate(476.855304 330.011062) scale(0.1 -0.1)">
       <defs>
        <path id="ArialMT-37" d="M 303 3981 
L 303 4522 
L 3269 4522 
L 3269 4084 
Q 2831 3619 2401 2847 
Q 1972 2075 1738 1259 
Q 1569 684 1522 0 
L 944 0 
Q 953 541 1156 1306 
Q 1359 2072 1739 2783 
Q 2119 3494 2547 3981 
L 303 3981 
z
" transform="scale(0.015625)"/>
       </defs>
       <use xlink:href="#ArialMT-37"/>
       <use xlink:href="#ArialMT-30" x="55.615234"/>
       <use xlink:href="#ArialMT-25" x="111.230469"/>
      </g>
     </g>
    </g>
    <g id="xtick_7">
     <g id="line2d_7"/>
     <g id="text_7">
      <!-- 80% -->
      <g style="fill: #262626" transform="translate(555.206859 330.011062) scale(0.1 -0.1)">
       <defs>
        <path id="ArialMT-38" d="M 1131 2484 
Q 781 2613 612 2850 
Q 444 3088 444 3419 
Q 444 3919 803 4259 
Q 1163 4600 1759 4600 
Q 2359 4600 2725 4251 
Q 3091 3903 3091 3403 
Q 3091 3084 2923 2848 
Q 2756 2613 2416 2484 
Q 2838 2347 3058 2040 
Q 3278 1734 3278 1309 
Q 3278 722 2862 322 
Q 2447 -78 1769 -78 
Q 1091 -78 675 323 
Q 259 725 259 1325 
Q 259 1772 486 2073 
Q 713 2375 1131 2484 
z
M 1019 3438 
Q 1019 3113 1228 2906 
Q 1438 2700 1772 2700 
Q 2097 2700 2305 2904 
Q 2513 3109 2513 3406 
Q 2513 3716 2298 3927 
Q 2084 4138 1766 4138 
Q 1444 4138 1231 3931 
Q 1019 3725 1019 3438 
z
M 838 1322 
Q 838 1081 952 856 
Q 1066 631 1291 507 
Q 1516 384 1775 384 
Q 2178 384 2440 643 
Q 2703 903 2703 1303 
Q 2703 1709 2433 1975 
Q 2163 2241 1756 2241 
Q 1359 2241 1098 1978 
Q 838 1716 838 1322 
z
" transform="scale(0.015625)"/>
       </defs>
       <use xlink:href="#ArialMT-38"/>
       <use xlink:href="#ArialMT-30" x="55.615234"/>
       <use xlink:href="#ArialMT-25" x="111.230469"/>
      </g>
     </g>
    </g>
    <g id="xtick_8">
     <g id="line2d_8"/>
     <g id="text_8">
      <!-- 90% -->
      <g style="fill: #262626" transform="translate(633.558413 330.011062) scale(0.1 -0.1)">
       <defs>
        <path id="ArialMT-39" d="M 350 1059 
L 891 1109 
Q 959 728 1153 556 
Q 1347 384 1650 384 
Q 1909 384 2104 503 
Q 2300 622 2425 820 
Q 2550 1019 2634 1356 
Q 2719 1694 2719 2044 
Q 2719 2081 2716 2156 
Q 2547 1888 2255 1720 
Q 1963 1553 1622 1553 
Q 1053 1553 659 1965 
Q 266 2378 266 3053 
Q 266 3750 677 4175 
Q 1088 4600 1706 4600 
Q 2153 4600 2523 4359 
Q 2894 4119 3086 3673 
Q 3278 3228 3278 2384 
Q 3278 1506 3087 986 
Q 2897 466 2520 194 
Q 2144 -78 1638 -78 
Q 1100 -78 759 220 
Q 419 519 350 1059 
z
M 2653 3081 
Q 2653 3566 2395 3850 
Q 2138 4134 1775 4134 
Q 1400 4134 1122 3828 
Q 844 3522 844 3034 
Q 844 2597 1108 2323 
Q 1372 2050 1759 2050 
Q 2150 2050 2401 2323 
Q 2653 2597 2653 3081 
z
" transform="scale(0.015625)"/>
       </defs>
       <use xlink:href="#ArialMT-39"/>
       <use xlink:href="#ArialMT-30" x="55.615234"/>
       <use xlink:href="#ArialMT-25" x="111.230469"/>
      </g>
     </g>
    </g>
    <g id="text_9">
     <!-- Diversity Among a National Porfolio of Retail REIT Properties -->
     <g style="fill: #262626" transform="translate(230.911719 343.27825) scale(0.1 -0.1)">
      <defs>
       <path id="ArialMT-44" d="M 494 0 
L 494 4581 
L 2072 4581 
Q 2606 4581 2888 4516 
Q 3281 4425 3559 4188 
Q 3922 3881 4101 3404 
Q 4281 2928 4281 2316 
Q 4281 1794 4159 1391 
Q 4038 988 3847 723 
Q 3656 459 3429 307 
Q 3203 156 2883 78 
Q 2563 0 2147 0 
L 494 0 
z
M 1100 541 
L 2078 541 
Q 2531 541 2789 625 
Q 3047 709 3200 863 
Q 3416 1078 3536 1442 
Q 3656 1806 3656 2325 
Q 3656 3044 3420 3430 
Q 3184 3816 2847 3947 
Q 2603 4041 2063 4041 
L 1100 4041 
L 1100 541 
z
" transform="scale(0.015625)"/>
       <path id="ArialMT-69" d="M 425 3934 
L 425 4581 
L 988 4581 
L 988 3934 
L 425 3934 
z
M 425 0 
L 425 3319 
L 988 3319 
L 988 0 
L 425 0 
z
" transform="scale(0.015625)"/>
       <path id="ArialMT-76" d="M 1344 0 
L 81 3319 
L 675 3319 
L 1388 1331 
Q 1503 1009 1600 663 
Q 1675 925 1809 1294 
L 2547 3319 
L 3125 3319 
L 1869 0 
L 1344 0 
z
" transform="scale(0.015625)"/>
       <path id="ArialMT-65" d="M 2694 1069 
L 3275 997 
Q 3138 488 2766 206 
Q 2394 -75 1816 -75 
Q 1088 -75 661 373 
Q 234 822 234 1631 
Q 234 2469 665 2931 
Q 1097 3394 1784 3394 
Q 2450 3394 2872 2941 
Q 3294 2488 3294 1666 
Q 3294 1616 3291 1516 
L 816 1516 
Q 847 969 1125 678 
Q 1403 388 1819 388 
Q 2128 388 2347 550 
Q 2566 713 2694 1069 
z
M 847 1978 
L 2700 1978 
Q 2663 2397 2488 2606 
Q 2219 2931 1791 2931 
Q 1403 2931 1139 2672 
Q 875 2413 847 1978 
z
" transform="scale(0.015625)"/>
       <path id="ArialMT-72" d="M 416 0 
L 416 3319 
L 922 3319 
L 922 2816 
Q 1116 3169 1280 3281 
Q 1444 3394 1641 3394 
Q 1925 3394 2219 3213 
L 2025 2691 
Q 1819 2813 1613 2813 
Q 1428 2813 1281 2702 
Q 1134 2591 1072 2394 
Q 978 2094 978 1738 
L 978 0 
L 416 0 
z
" transform="scale(0.015625)"/>
       <path id="ArialMT-73" d="M 197 991 
L 753 1078 
Q 800 744 1014 566 
Q 1228 388 1613 388 
Q 2000 388 2187 545 
Q 2375 703 2375 916 
Q 2375 1106 2209 1216 
Q 2094 1291 1634 1406 
Q 1016 1563 777 1677 
Q 538 1791 414 1992 
Q 291 2194 291 2438 
Q 291 2659 392 2848 
Q 494 3038 669 3163 
Q 800 3259 1026 3326 
Q 1253 3394 1513 3394 
Q 1903 3394 2198 3281 
Q 2494 3169 2634 2976 
Q 2775 2784 2828 2463 
L 2278 2388 
Q 2241 2644 2061 2787 
Q 1881 2931 1553 2931 
Q 1166 2931 1000 2803 
Q 834 2675 834 2503 
Q 834 2394 903 2306 
Q 972 2216 1119 2156 
Q 1203 2125 1616 2013 
Q 2213 1853 2448 1751 
Q 2684 1650 2818 1456 
Q 2953 1263 2953 975 
Q 2953 694 2789 445 
Q 2625 197 2315 61 
Q 2006 -75 1616 -75 
Q 969 -75 630 194 
Q 291 463 197 991 
z
" transform="scale(0.015625)"/>
       <path id="ArialMT-74" d="M 1650 503 
L 1731 6 
Q 1494 -44 1306 -44 
Q 1000 -44 831 53 
Q 663 150 594 308 
Q 525 466 525 972 
L 525 2881 
L 113 2881 
L 113 3319 
L 525 3319 
L 525 4141 
L 1084 4478 
L 1084 3319 
L 1650 3319 
L 1650 2881 
L 1084 2881 
L 1084 941 
Q 1084 700 1114 631 
Q 1144 563 1211 522 
Q 1278 481 1403 481 
Q 1497 481 1650 503 
z
" transform="scale(0.015625)"/>
       <path id="ArialMT-79" d="M 397 -1278 
L 334 -750 
Q 519 -800 656 -800 
Q 844 -800 956 -737 
Q 1069 -675 1141 -563 
Q 1194 -478 1313 -144 
Q 1328 -97 1363 -6 
L 103 3319 
L 709 3319 
L 1400 1397 
Q 1534 1031 1641 628 
Q 1738 1016 1872 1384 
L 2581 3319 
L 3144 3319 
L 1881 -56 
Q 1678 -603 1566 -809 
Q 1416 -1088 1222 -1217 
Q 1028 -1347 759 -1347 
Q 597 -1347 397 -1278 
z
" transform="scale(0.015625)"/>
       <path id="ArialMT-20" transform="scale(0.015625)"/>
       <path id="ArialMT-41" d="M -9 0 
L 1750 4581 
L 2403 4581 
L 4278 0 
L 3588 0 
L 3053 1388 
L 1138 1388 
L 634 0 
L -9 0 
z
M 1313 1881 
L 2866 1881 
L 2388 3150 
Q 2169 3728 2063 4100 
Q 1975 3659 1816 3225 
L 1313 1881 
z
" transform="scale(0.015625)"/>
       <path id="ArialMT-6d" d="M 422 0 
L 422 3319 
L 925 3319 
L 925 2853 
Q 1081 3097 1340 3245 
Q 1600 3394 1931 3394 
Q 2300 3394 2536 3241 
Q 2772 3088 2869 2813 
Q 3263 3394 3894 3394 
Q 4388 3394 4653 3120 
Q 4919 2847 4919 2278 
L 4919 0 
L 4359 0 
L 4359 2091 
Q 4359 2428 4304 2576 
Q 4250 2725 4106 2815 
Q 3963 2906 3769 2906 
Q 3419 2906 3187 2673 
Q 2956 2441 2956 1928 
L 2956 0 
L 2394 0 
L 2394 2156 
Q 2394 2531 2256 2718 
Q 2119 2906 1806 2906 
Q 1569 2906 1367 2781 
Q 1166 2656 1075 2415 
Q 984 2175 984 1722 
L 984 0 
L 422 0 
z
" transform="scale(0.015625)"/>
       <path id="ArialMT-6f" d="M 213 1659 
Q 213 2581 725 3025 
Q 1153 3394 1769 3394 
Q 2453 3394 2887 2945 
Q 3322 2497 3322 1706 
Q 3322 1066 3130 698 
Q 2938 331 2570 128 
Q 2203 -75 1769 -75 
Q 1072 -75 642 372 
Q 213 819 213 1659 
z
M 791 1659 
Q 791 1022 1069 705 
Q 1347 388 1769 388 
Q 2188 388 2466 706 
Q 2744 1025 2744 1678 
Q 2744 2294 2464 2611 
Q 2184 2928 1769 2928 
Q 1347 2928 1069 2612 
Q 791 2297 791 1659 
z
" transform="scale(0.015625)"/>
       <path id="ArialMT-6e" d="M 422 0 
L 422 3319 
L 928 3319 
L 928 2847 
Q 1294 3394 1984 3394 
Q 2284 3394 2536 3286 
Q 2788 3178 2913 3003 
Q 3038 2828 3088 2588 
Q 3119 2431 3119 2041 
L 3119 0 
L 2556 0 
L 2556 2019 
Q 2556 2363 2490 2533 
Q 2425 2703 2258 2804 
Q 2091 2906 1866 2906 
Q 1506 2906 1245 2678 
Q 984 2450 984 1813 
L 984 0 
L 422 0 
z
" transform="scale(0.015625)"/>
       <path id="ArialMT-67" d="M 319 -275 
L 866 -356 
Q 900 -609 1056 -725 
Q 1266 -881 1628 -881 
Q 2019 -881 2231 -725 
Q 2444 -569 2519 -288 
Q 2563 -116 2559 434 
Q 2191 0 1641 0 
Q 956 0 581 494 
Q 206 988 206 1678 
Q 206 2153 378 2554 
Q 550 2956 876 3175 
Q 1203 3394 1644 3394 
Q 2231 3394 2613 2919 
L 2613 3319 
L 3131 3319 
L 3131 450 
Q 3131 -325 2973 -648 
Q 2816 -972 2473 -1159 
Q 2131 -1347 1631 -1347 
Q 1038 -1347 672 -1080 
Q 306 -813 319 -275 
z
M 784 1719 
Q 784 1066 1043 766 
Q 1303 466 1694 466 
Q 2081 466 2343 764 
Q 2606 1063 2606 1700 
Q 2606 2309 2336 2618 
Q 2066 2928 1684 2928 
Q 1309 2928 1046 2623 
Q 784 2319 784 1719 
z
" transform="scale(0.015625)"/>
       <path id="ArialMT-61" d="M 2588 409 
Q 2275 144 1986 34 
Q 1697 -75 1366 -75 
Q 819 -75 525 192 
Q 231 459 231 875 
Q 231 1119 342 1320 
Q 453 1522 633 1644 
Q 813 1766 1038 1828 
Q 1203 1872 1538 1913 
Q 2219 1994 2541 2106 
Q 2544 2222 2544 2253 
Q 2544 2597 2384 2738 
Q 2169 2928 1744 2928 
Q 1347 2928 1158 2789 
Q 969 2650 878 2297 
L 328 2372 
Q 403 2725 575 2942 
Q 747 3159 1072 3276 
Q 1397 3394 1825 3394 
Q 2250 3394 2515 3294 
Q 2781 3194 2906 3042 
Q 3031 2891 3081 2659 
Q 3109 2516 3109 2141 
L 3109 1391 
Q 3109 606 3145 398 
Q 3181 191 3288 0 
L 2700 0 
Q 2613 175 2588 409 
z
M 2541 1666 
Q 2234 1541 1622 1453 
Q 1275 1403 1131 1340 
Q 988 1278 909 1158 
Q 831 1038 831 891 
Q 831 666 1001 516 
Q 1172 366 1500 366 
Q 1825 366 2078 508 
Q 2331 650 2450 897 
Q 2541 1088 2541 1459 
L 2541 1666 
z
" transform="scale(0.015625)"/>
       <path id="ArialMT-4e" d="M 488 0 
L 488 4581 
L 1109 4581 
L 3516 984 
L 3516 4581 
L 4097 4581 
L 4097 0 
L 3475 0 
L 1069 3600 
L 1069 0 
L 488 0 
z
" transform="scale(0.015625)"/>
       <path id="ArialMT-6c" d="M 409 0 
L 409 4581 
L 972 4581 
L 972 0 
L 409 0 
z
" transform="scale(0.015625)"/>
       <path id="ArialMT-50" d="M 494 0 
L 494 4581 
L 2222 4581 
Q 2678 4581 2919 4538 
Q 3256 4481 3484 4323 
Q 3713 4166 3852 3881 
Q 3991 3597 3991 3256 
Q 3991 2672 3619 2267 
Q 3247 1863 2275 1863 
L 1100 1863 
L 1100 0 
L 494 0 
z
M 1100 2403 
L 2284 2403 
Q 2872 2403 3119 2622 
Q 3366 2841 3366 3238 
Q 3366 3525 3220 3729 
Q 3075 3934 2838 4000 
Q 2684 4041 2272 4041 
L 1100 4041 
L 1100 2403 
z
" transform="scale(0.015625)"/>
       <path id="ArialMT-66" d="M 556 0 
L 556 2881 
L 59 2881 
L 59 3319 
L 556 3319 
L 556 3672 
Q 556 4006 616 4169 
Q 697 4388 901 4523 
Q 1106 4659 1475 4659 
Q 1713 4659 2000 4603 
L 1916 4113 
Q 1741 4144 1584 4144 
Q 1328 4144 1222 4034 
Q 1116 3925 1116 3625 
L 1116 3319 
L 1763 3319 
L 1763 2881 
L 1116 2881 
L 1116 0 
L 556 0 
z
" transform="scale(0.015625)"/>
       <path id="ArialMT-52" d="M 503 0 
L 503 4581 
L 2534 4581 
Q 3147 4581 3465 4457 
Q 3784 4334 3975 4021 
Q 4166 3709 4166 3331 
Q 4166 2844 3850 2509 
Q 3534 2175 2875 2084 
Q 3116 1969 3241 1856 
Q 3506 1613 3744 1247 
L 4541 0 
L 3778 0 
L 3172 953 
Q 2906 1366 2734 1584 
Q 2563 1803 2427 1890 
Q 2291 1978 2150 2013 
Q 2047 2034 1813 2034 
L 1109 2034 
L 1109 0 
L 503 0 
z
M 1109 2559 
L 2413 2559 
Q 2828 2559 3062 2645 
Q 3297 2731 3419 2920 
Q 3541 3109 3541 3331 
Q 3541 3656 3305 3865 
Q 3069 4075 2559 4075 
L 1109 4075 
L 1109 2559 
z
" transform="scale(0.015625)"/>
       <path id="ArialMT-45" d="M 506 0 
L 506 4581 
L 3819 4581 
L 3819 4041 
L 1113 4041 
L 1113 2638 
L 3647 2638 
L 3647 2100 
L 1113 2100 
L 1113 541 
L 3925 541 
L 3925 0 
L 506 0 
z
" transform="scale(0.015625)"/>
       <path id="ArialMT-49" d="M 597 0 
L 597 4581 
L 1203 4581 
L 1203 0 
L 597 0 
z
" transform="scale(0.015625)"/>
       <path id="ArialMT-54" d="M 1659 0 
L 1659 4041 
L 150 4041 
L 150 4581 
L 3781 4581 
L 3781 4041 
L 2266 4041 
L 2266 0 
L 1659 0 
z
" transform="scale(0.015625)"/>
       <path id="ArialMT-70" d="M 422 -1272 
L 422 3319 
L 934 3319 
L 934 2888 
Q 1116 3141 1344 3267 
Q 1572 3394 1897 3394 
Q 2322 3394 2647 3175 
Q 2972 2956 3137 2557 
Q 3303 2159 3303 1684 
Q 3303 1175 3120 767 
Q 2938 359 2589 142 
Q 2241 -75 1856 -75 
Q 1575 -75 1351 44 
Q 1128 163 984 344 
L 984 -1272 
L 422 -1272 
z
M 931 1641 
Q 931 1000 1190 694 
Q 1450 388 1819 388 
Q 2194 388 2461 705 
Q 2728 1022 2728 1688 
Q 2728 2322 2467 2637 
Q 2206 2953 1844 2953 
Q 1484 2953 1207 2617 
Q 931 2281 931 1641 
z
" transform="scale(0.015625)"/>
      </defs>
      <use xlink:href="#ArialMT-44"/>
      <use xlink:href="#ArialMT-69" x="72.216797"/>
      <use xlink:href="#ArialMT-76" x="94.433594"/>
      <use xlink:href="#ArialMT-65" x="144.433594"/>
      <use xlink:href="#ArialMT-72" x="200.048828"/>
      <use xlink:href="#ArialMT-73" x="233.349609"/>
      <use xlink:href="#ArialMT-69" x="283.349609"/>
      <use xlink:href="#ArialMT-74" x="305.566406"/>
      <use xlink:href="#ArialMT-79" x="333.349609"/>
      <use xlink:href="#ArialMT-20" x="383.349609"/>
      <use xlink:href="#ArialMT-41" x="405.632812"/>
      <use xlink:href="#ArialMT-6d" x="472.332031"/>
      <use xlink:href="#ArialMT-6f" x="555.632812"/>
      <use xlink:href="#ArialMT-6e" x="611.248047"/>
      <use xlink:href="#ArialMT-67" x="666.863281"/>
      <use xlink:href="#ArialMT-20" x="722.478516"/>
      <use xlink:href="#ArialMT-61" x="750.261719"/>
      <use xlink:href="#ArialMT-20" x="805.876953"/>
      <use xlink:href="#ArialMT-4e" x="833.660156"/>
      <use xlink:href="#ArialMT-61" x="905.876953"/>
      <use xlink:href="#ArialMT-74" x="961.492188"/>
      <use xlink:href="#ArialMT-69" x="989.275391"/>
      <use xlink:href="#ArialMT-6f" x="1011.492188"/>
      <use xlink:href="#ArialMT-6e" x="1067.107422"/>
      <use xlink:href="#ArialMT-61" x="1122.722656"/>
      <use xlink:href="#ArialMT-6c" x="1178.337891"/>
      <use xlink:href="#ArialMT-20" x="1200.554688"/>
      <use xlink:href="#ArialMT-50" x="1228.337891"/>
      <use xlink:href="#ArialMT-6f" x="1295.037109"/>
      <use xlink:href="#ArialMT-72" x="1350.652344"/>
      <use xlink:href="#ArialMT-66" x="1383.953125"/>
      <use xlink:href="#ArialMT-6f" x="1411.736328"/>
      <use xlink:href="#ArialMT-6c" x="1467.351562"/>
      <use xlink:href="#ArialMT-69" x="1489.568359"/>
      <use xlink:href="#ArialMT-6f" x="1511.785156"/>
      <use xlink:href="#ArialMT-20" x="1567.400391"/>
      <use xlink:href="#ArialMT-6f" x="1595.183594"/>
      <use xlink:href="#ArialMT-66" x="1650.798828"/>
      <use xlink:href="#ArialMT-20" x="1678.582031"/>
      <use xlink:href="#ArialMT-52" x="1706.365234"/>
      <use xlink:href="#ArialMT-65" x="1778.582031"/>
      <use xlink:href="#ArialMT-74" x="1834.197266"/>
      <use xlink:href="#ArialMT-61" x="1861.980469"/>
      <use xlink:href="#ArialMT-69" x="1917.595703"/>
      <use xlink:href="#ArialMT-6c" x="1939.8125"/>
      <use xlink:href="#ArialMT-20" x="1962.029297"/>
      <use xlink:href="#ArialMT-52" x="1989.8125"/>
      <use xlink:href="#ArialMT-45" x="2062.029297"/>
      <use xlink:href="#ArialMT-49" x="2128.728516"/>
      <use xlink:href="#ArialMT-54" x="2156.511719"/>
      <use xlink:href="#ArialMT-20" x="2215.845703"/>
      <use xlink:href="#ArialMT-50" x="2243.628906"/>
      <use xlink:href="#ArialMT-72" x="2310.328125"/>
      <use xlink:href="#ArialMT-6f" x="2343.628906"/>
      <use xlink:href="#ArialMT-70" x="2399.244141"/>
      <use xlink:href="#ArialMT-65" x="2454.859375"/>
      <use xlink:href="#ArialMT-72" x="2510.474609"/>
      <use xlink:href="#ArialMT-74" x="2543.775391"/>
      <use xlink:href="#ArialMT-69" x="2571.558594"/>
      <use xlink:href="#ArialMT-65" x="2593.775391"/>
      <use xlink:href="#ArialMT-73" x="2649.390625"/>
     </g>
    </g>
   </g>
   <g id="matplotlib.axis_2">
    <g id="ytick_1">
     <g id="line2d_9"/>
     <g id="text_10">
      <!-- 0.0 -->
      <g style="fill: #262626" transform="translate(7.2 310.652974) scale(0.1 -0.1)">
       <defs>
        <path id="ArialMT-2e" d="M 581 0 
L 581 641 
L 1222 641 
L 1222 0 
L 581 0 
z
" transform="scale(0.015625)"/>
       </defs>
       <use xlink:href="#ArialMT-30"/>
       <use xlink:href="#ArialMT-2e" x="55.615234"/>
       <use xlink:href="#ArialMT-30" x="83.398438"/>
      </g>
     </g>
    </g>
    <g id="ytick_2">
     <g id="line2d_10"/>
     <g id="text_11">
      <!-- 0.5 -->
      <g style="fill: #262626" transform="translate(7.2 271.814619) scale(0.1 -0.1)">
       <use xlink:href="#ArialMT-30"/>
       <use xlink:href="#ArialMT-2e" x="55.615234"/>
       <use xlink:href="#ArialMT-35" x="83.398438"/>
      </g>
     </g>
    </g>
    <g id="ytick_3">
     <g id="line2d_11"/>
     <g id="text_12">
      <!-- 1.0 -->
      <g style="fill: #262626" transform="translate(7.2 232.976264) scale(0.1 -0.1)">
       <defs>
        <path id="ArialMT-31" d="M 2384 0 
L 1822 0 
L 1822 3584 
Q 1619 3391 1289 3197 
Q 959 3003 697 2906 
L 697 3450 
Q 1169 3672 1522 3987 
Q 1875 4303 2022 4600 
L 2384 4600 
L 2384 0 
z
" transform="scale(0.015625)"/>
       </defs>
       <use xlink:href="#ArialMT-31"/>
       <use xlink:href="#ArialMT-2e" x="55.615234"/>
       <use xlink:href="#ArialMT-30" x="83.398438"/>
      </g>
     </g>
    </g>
    <g id="ytick_4">
     <g id="line2d_12"/>
     <g id="text_13">
      <!-- 1.5 -->
      <g style="fill: #262626" transform="translate(7.2 194.137908) scale(0.1 -0.1)">
       <use xlink:href="#ArialMT-31"/>
       <use xlink:href="#ArialMT-2e" x="55.615234"/>
       <use xlink:href="#ArialMT-35" x="83.398438"/>
      </g>
     </g>
    </g>
    <g id="ytick_5">
     <g id="line2d_13"/>
     <g id="text_14">
      <!-- 2.0 -->
      <g style="fill: #262626" transform="translate(7.2 155.299553) scale(0.1 -0.1)">
       <use xlink:href="#ArialMT-32"/>
       <use xlink:href="#ArialMT-2e" x="55.615234"/>
       <use xlink:href="#ArialMT-30" x="83.398438"/>
      </g>
     </g>
    </g>
    <g id="ytick_6">
     <g id="line2d_14"/>
     <g id="text_15">
      <!-- 2.5 -->
      <g style="fill: #262626" transform="translate(7.2 116.461198) scale(0.1 -0.1)">
       <use xlink:href="#ArialMT-32"/>
       <use xlink:href="#ArialMT-2e" x="55.615234"/>
       <use xlink:href="#ArialMT-35" x="83.398438"/>
      </g>
     </g>
    </g>
    <g id="ytick_7">
     <g id="line2d_15"/>
     <g id="text_16">
      <!-- 3.0 -->
      <g style="fill: #262626" transform="translate(7.2 77.622842) scale(0.1 -0.1)">
       <use xlink:href="#ArialMT-33"/>
       <use xlink:href="#ArialMT-2e" x="55.615234"/>
       <use xlink:href="#ArialMT-30" x="83.398438"/>
      </g>
     </g>
    </g>
   </g>
   <g id="PolyCollection_1">
    <defs>
     <path id="m281fb864d1" d="M 55.625 -77.033401 
L 55.625 -80.768322 
L 57.700251 -80.88021 
L 59.775502 -80.984818 
L 61.850753 -81.0822 
L 63.926003 -81.17259 
L 66.001254 -81.256394 
L 68.076505 -81.334188 
L 70.151756 -81.406696 
L 72.227007 -81.474783 
L 74.302258 -81.539425 
L 76.377508 -81.601692 
L 78.452759 -81.662717 
L 80.52801 -81.723672 
L 82.603261 -81.785733 
L 84.678512 -81.850057 
L 86.753763 -81.917749 
L 88.829013 -81.98984 
L 90.904264 -82.067257 
L 92.979515 -82.150805 
L 95.054766 -82.241149 
L 97.130017 -82.3388 
L 99.205268 -82.444107 
L 101.280518 -82.55725 
L 103.355769 -82.678246 
L 105.43102 -82.806951 
L 107.506271 -82.943071 
L 109.581522 -83.08618 
L 111.656773 -83.235734 
L 113.732023 -83.391095 
L 115.807274 -83.551558 
L 117.882525 -83.716373 
L 119.957776 -83.884774 
L 122.033027 -84.056006 
L 124.108278 -84.229349 
L 126.183528 -84.404141 
L 128.258779 -84.579801 
L 130.33403 -84.755843 
L 132.409281 -84.931888 
L 134.484532 -85.107676 
L 136.559783 -85.283064 
L 138.635033 -85.458026 
L 140.710284 -85.632648 
L 142.785535 -85.807111 
L 144.860786 -85.981682 
L 146.936037 -86.156693 
L 149.011288 -86.332517 
L 151.086538 -86.509551 
L 153.161789 -86.688193 
L 155.23704 -86.868817 
L 157.312291 -87.051754 
L 159.387542 -87.237276 
L 161.462793 -87.425581 
L 163.538043 -87.616782 
L 165.613294 -87.810904 
L 167.688545 -88.007877 
L 169.763796 -88.207549 
L 171.839047 -88.409686 
L 173.914298 -88.61399 
L 175.989548 -88.820116 
L 178.064799 -89.02769 
L 180.14005 -89.236338 
L 182.215301 -89.445708 
L 184.290552 -89.655496 
L 186.365803 -89.86548 
L 188.441054 -90.07554 
L 190.516304 -90.285692 
L 192.591555 -90.496108 
L 194.666806 -90.707138 
L 196.742057 -90.919334 
L 198.817308 -91.13346 
L 200.892559 -91.350507 
L 202.967809 -91.571696 
L 205.04306 -91.798484 
L 207.118311 -92.032554 
L 209.193562 -92.275811 
L 211.268813 -92.530362 
L 213.344064 -92.798496 
L 215.419314 -93.082659 
L 217.494565 -93.385421 
L 219.569816 -93.709439 
L 221.645067 -94.057417 
L 223.720318 -94.432063 
L 225.795569 -94.83604 
L 227.870819 -95.271925 
L 229.94607 -95.742157 
L 232.021321 -96.248998 
L 234.096572 -96.79449 
L 236.171823 -97.380417 
L 238.247074 -98.008281 
L 240.322324 -98.679275 
L 242.397575 -99.394276 
L 244.472826 -100.153836 
L 246.548077 -100.958195 
L 248.623328 -101.807293 
L 250.698579 -102.700804 
L 252.773829 -103.638168 
L 254.84908 -104.61864 
L 256.924331 -105.64134 
L 258.999582 -106.705312 
L 261.074833 -107.809582 
L 263.150084 -108.953221 
L 265.225334 -110.1354 
L 267.300585 -111.355448 
L 269.375836 -112.612891 
L 271.451087 -113.907492 
L 273.526338 -115.239278 
L 275.601589 -116.608546 
L 277.676839 -118.015863 
L 279.75209 -119.462047 
L 281.827341 -120.948136 
L 283.902592 -122.475337 
L 285.977843 -124.044971 
L 288.053094 -125.658396 
L 290.128344 -127.316934 
L 292.203595 -129.021783 
L 294.278846 -130.773929 
L 296.354097 -132.574062 
L 298.429348 -134.422496 
L 300.504599 -136.319092 
L 302.579849 -138.263204 
L 304.6551 -140.253629 
L 306.730351 -142.288582 
L 308.805602 -144.365686 
L 310.880853 -146.481987 
L 312.956104 -148.633988 
L 315.031355 -150.817708 
L 317.106605 -153.028752 
L 319.181856 -155.262416 
L 321.257107 -157.51379 
L 323.332358 -159.77789 
L 325.407609 -162.049785 
L 327.48286 -164.324735 
L 329.55811 -166.598336 
L 331.633361 -168.866641 
L 333.708612 -171.126294 
L 335.783863 -173.374631 
L 337.859114 -175.609772 
L 339.934365 -177.83069 
L 342.009615 -180.037253 
L 344.084866 -182.230235 
L 346.160117 -184.411307 
L 348.235368 -186.582987 
L 350.310619 -188.748571 
L 352.38587 -190.912028 
L 354.46112 -193.077874 
L 356.536371 -195.251024 
L 358.611622 -197.436622 
L 360.686873 -199.639862 
L 362.762124 -201.865799 
L 364.837375 -204.119155 
L 366.912625 -206.404132 
L 368.987876 -208.724235 
L 371.063127 -211.082107 
L 373.138378 -213.479386 
L 375.213629 -215.916593 
L 377.28888 -218.393041 
L 379.36413 -220.906785 
L 381.439381 -223.454607 
L 383.514632 -226.032041 
L 385.589883 -228.633427 
L 387.665134 -231.252017 
L 389.740385 -233.880104 
L 391.815635 -236.509188 
L 393.890886 -239.13017 
L 395.966137 -241.733567 
L 398.041388 -244.309747 
L 400.116639 -246.849164 
L 402.19189 -249.342608 
L 404.26714 -251.781444 
L 406.342391 -254.157837 
L 408.417642 -256.464962 
L 410.492893 -258.69719 
L 412.568144 -260.850241 
L 414.643395 -262.921304 
L 416.718645 -264.909116 
L 418.793896 -266.814004 
L 420.869147 -268.637882 
L 422.944398 -270.38421 
L 425.019649 -272.057907 
L 427.0949 -273.665232 
L 429.170151 -275.213623 
L 431.245401 -276.711511 
L 433.320652 -278.168108 
L 435.395903 -279.593165 
L 437.471154 -280.996729 
L 439.546405 -282.388879 
L 441.621656 -283.779464 
L 443.696906 -285.17784 
L 445.772157 -286.59262 
L 447.847408 -288.031429 
L 449.922659 -289.500688 
L 451.99791 -291.005412 
L 454.073161 -292.549037 
L 456.148411 -294.133284 
L 458.223662 -295.758049 
L 460.298913 -297.421333 
L 462.374164 -299.119211 
L 464.449415 -300.845845 
L 466.524666 -302.593528 
L 468.599916 -304.352778 
L 470.675167 -306.112469 
L 472.750418 -307.859994 
L 474.825669 -309.581476 
L 476.90092 -311.261992 
L 478.976171 -312.885846 
L 481.051421 -314.436841 
L 483.126672 -315.898583 
L 485.201923 -317.254786 
L 487.277174 -318.489575 
L 489.352425 -319.587793 
L 491.427676 -320.535283 
L 493.502926 -321.319153 
L 495.578177 -321.92801 
L 497.653428 -322.352167 
L 499.728679 -322.583793 
L 501.80393 -322.617037 
L 503.879181 -322.448088 
L 505.954431 -322.075196 
L 508.029682 -321.498637 
L 510.104933 -320.720631 
L 512.180184 -319.745218 
L 514.255435 -318.578086 
L 516.330686 -317.226368 
L 518.405936 -315.698412 
L 520.481187 -314.003521 
L 522.556438 -312.151689 
L 524.631689 -310.153326 
L 526.70694 -308.018987 
L 528.782191 -305.759112 
L 530.857441 -303.383787 
L 532.932692 -300.902528 
L 535.007943 -298.324098 
L 537.083194 -295.656357 
L 539.158445 -292.906151 
L 541.233696 -290.07925 
L 543.308946 -287.180316 
L 545.384197 -284.21292 
L 547.459448 -281.179597 
L 549.534699 -278.081934 
L 551.60995 -274.920694 
L 553.685201 -271.695964 
L 555.760452 -268.407326 
L 557.835702 -265.054044 
L 559.910953 -261.635256 
L 561.986204 -258.150174 
L 564.061455 -254.598276 
L 566.136706 -250.979491 
L 568.211957 -247.294364 
L 570.287207 -243.544209 
L 572.362458 -239.731228 
L 574.437709 -235.858606 
L 576.51296 -231.930581 
L 578.588211 -227.95247 
L 580.663462 -223.930673 
L 582.738712 -219.872639 
L 584.813963 -215.7868 
L 586.889214 -211.682479 
L 588.964465 -207.56977 
L 591.039716 -203.459388 
L 593.114967 -199.362513 
L 595.190217 -195.290605 
L 597.265468 -191.255215 
L 599.340719 -187.267791 
L 601.41597 -183.339483 
L 603.491221 -179.480946 
L 605.566472 -175.702164 
L 607.641722 -172.012275 
L 609.716973 -168.419425 
L 611.792224 -164.930632 
L 613.867475 -161.551683 
L 615.942726 -158.287055 
L 618.017977 -155.139861 
L 620.093227 -152.111832 
L 622.168478 -149.203322 
L 624.243729 -146.413346 
L 626.31898 -143.739646 
L 628.394231 -141.178782 
L 630.469482 -138.726245 
L 632.544732 -136.376597 
L 634.619983 -134.123621 
L 636.695234 -131.960483 
L 638.770485 -129.879916 
L 640.845736 -127.874389 
L 642.920987 -125.936294 
L 644.996237 -124.058115 
L 647.071488 -122.232595 
L 649.146739 -120.452894 
L 651.22199 -118.712719 
L 653.297241 -117.006445 
L 655.372492 -115.329211 
L 657.447742 -113.676995 
L 659.522993 -112.046655 
L 661.598244 -110.43596 
L 663.673495 -108.843581 
L 665.748746 -107.269071 
L 667.823997 -105.712815 
L 669.899247 -104.175961 
L 671.974498 -102.660342 
L 674.049749 -101.168368 
L 676.125 -99.702927 
L 676.125 -77.033401 
L 676.125 -77.033401 
L 674.049749 -77.033401 
L 671.974498 -77.033401 
L 669.899247 -77.033401 
L 667.823997 -77.033401 
L 665.748746 -77.033401 
L 663.673495 -77.033401 
L 661.598244 -77.033401 
L 659.522993 -77.033401 
L 657.447742 -77.033401 
L 655.372492 -77.033401 
L 653.297241 -77.033401 
L 651.22199 -77.033401 
L 649.146739 -77.033401 
L 647.071488 -77.033401 
L 644.996237 -77.033401 
L 642.920987 -77.033401 
L 640.845736 -77.033401 
L 638.770485 -77.033401 
L 636.695234 -77.033401 
L 634.619983 -77.033401 
L 632.544732 -77.033401 
L 630.469482 -77.033401 
L 628.394231 -77.033401 
L 626.31898 -77.033401 
L 624.243729 -77.033401 
L 622.168478 -77.033401 
L 620.093227 -77.033401 
L 618.017977 -77.033401 
L 615.942726 -77.033401 
L 613.867475 -77.033401 
L 611.792224 -77.033401 
L 609.716973 -77.033401 
L 607.641722 -77.033401 
L 605.566472 -77.033401 
L 603.491221 -77.033401 
L 601.41597 -77.033401 
L 599.340719 -77.033401 
L 597.265468 -77.033401 
L 595.190217 -77.033401 
L 593.114967 -77.033401 
L 591.039716 -77.033401 
L 588.964465 -77.033401 
L 586.889214 -77.033401 
L 584.813963 -77.033401 
L 582.738712 -77.033401 
L 580.663462 -77.033401 
L 578.588211 -77.033401 
L 576.51296 -77.033401 
L 574.437709 -77.033401 
L 572.362458 -77.033401 
L 570.287207 -77.033401 
L 568.211957 -77.033401 
L 566.136706 -77.033401 
L 564.061455 -77.033401 
L 561.986204 -77.033401 
L 559.910953 -77.033401 
L 557.835702 -77.033401 
L 555.760452 -77.033401 
L 553.685201 -77.033401 
L 551.60995 -77.033401 
L 549.534699 -77.033401 
L 547.459448 -77.033401 
L 545.384197 -77.033401 
L 543.308946 -77.033401 
L 541.233696 -77.033401 
L 539.158445 -77.033401 
L 537.083194 -77.033401 
L 535.007943 -77.033401 
L 532.932692 -77.033401 
L 530.857441 -77.033401 
L 528.782191 -77.033401 
L 526.70694 -77.033401 
L 524.631689 -77.033401 
L 522.556438 -77.033401 
L 520.481187 -77.033401 
L 518.405936 -77.033401 
L 516.330686 -77.033401 
L 514.255435 -77.033401 
L 512.180184 -77.033401 
L 510.104933 -77.033401 
L 508.029682 -77.033401 
L 505.954431 -77.033401 
L 503.879181 -77.033401 
L 501.80393 -77.033401 
L 499.728679 -77.033401 
L 497.653428 -77.033401 
L 495.578177 -77.033401 
L 493.502926 -77.033401 
L 491.427676 -77.033401 
L 489.352425 -77.033401 
L 487.277174 -77.033401 
L 485.201923 -77.033401 
L 483.126672 -77.033401 
L 481.051421 -77.033401 
L 478.976171 -77.033401 
L 476.90092 -77.033401 
L 474.825669 -77.033401 
L 472.750418 -77.033401 
L 470.675167 -77.033401 
L 468.599916 -77.033401 
L 466.524666 -77.033401 
L 464.449415 -77.033401 
L 462.374164 -77.033401 
L 460.298913 -77.033401 
L 458.223662 -77.033401 
L 456.148411 -77.033401 
L 454.073161 -77.033401 
L 451.99791 -77.033401 
L 449.922659 -77.033401 
L 447.847408 -77.033401 
L 445.772157 -77.033401 
L 443.696906 -77.033401 
L 441.621656 -77.033401 
L 439.546405 -77.033401 
L 437.471154 -77.033401 
L 435.395903 -77.033401 
L 433.320652 -77.033401 
L 431.245401 -77.033401 
L 429.170151 -77.033401 
L 427.0949 -77.033401 
L 425.019649 -77.033401 
L 422.944398 -77.033401 
L 420.869147 -77.033401 
L 418.793896 -77.033401 
L 416.718645 -77.033401 
L 414.643395 -77.033401 
L 412.568144 -77.033401 
L 410.492893 -77.033401 
L 408.417642 -77.033401 
L 406.342391 -77.033401 
L 404.26714 -77.033401 
L 402.19189 -77.033401 
L 400.116639 -77.033401 
L 398.041388 -77.033401 
L 395.966137 -77.033401 
L 393.890886 -77.033401 
L 391.815635 -77.033401 
L 389.740385 -77.033401 
L 387.665134 -77.033401 
L 385.589883 -77.033401 
L 383.514632 -77.033401 
L 381.439381 -77.033401 
L 379.36413 -77.033401 
L 377.28888 -77.033401 
L 375.213629 -77.033401 
L 373.138378 -77.033401 
L 371.063127 -77.033401 
L 368.987876 -77.033401 
L 366.912625 -77.033401 
L 364.837375 -77.033401 
L 362.762124 -77.033401 
L 360.686873 -77.033401 
L 358.611622 -77.033401 
L 356.536371 -77.033401 
L 354.46112 -77.033401 
L 352.38587 -77.033401 
L 350.310619 -77.033401 
L 348.235368 -77.033401 
L 346.160117 -77.033401 
L 344.084866 -77.033401 
L 342.009615 -77.033401 
L 339.934365 -77.033401 
L 337.859114 -77.033401 
L 335.783863 -77.033401 
L 333.708612 -77.033401 
L 331.633361 -77.033401 
L 329.55811 -77.033401 
L 327.48286 -77.033401 
L 325.407609 -77.033401 
L 323.332358 -77.033401 
L 321.257107 -77.033401 
L 319.181856 -77.033401 
L 317.106605 -77.033401 
L 315.031355 -77.033401 
L 312.956104 -77.033401 
L 310.880853 -77.033401 
L 308.805602 -77.033401 
L 306.730351 -77.033401 
L 304.6551 -77.033401 
L 302.579849 -77.033401 
L 300.504599 -77.033401 
L 298.429348 -77.033401 
L 296.354097 -77.033401 
L 294.278846 -77.033401 
L 292.203595 -77.033401 
L 290.128344 -77.033401 
L 288.053094 -77.033401 
L 285.977843 -77.033401 
L 283.902592 -77.033401 
L 281.827341 -77.033401 
L 279.75209 -77.033401 
L 277.676839 -77.033401 
L 275.601589 -77.033401 
L 273.526338 -77.033401 
L 271.451087 -77.033401 
L 269.375836 -77.033401 
L 267.300585 -77.033401 
L 265.225334 -77.033401 
L 263.150084 -77.033401 
L 261.074833 -77.033401 
L 258.999582 -77.033401 
L 256.924331 -77.033401 
L 254.84908 -77.033401 
L 252.773829 -77.033401 
L 250.698579 -77.033401 
L 248.623328 -77.033401 
L 246.548077 -77.033401 
L 244.472826 -77.033401 
L 242.397575 -77.033401 
L 240.322324 -77.033401 
L 238.247074 -77.033401 
L 236.171823 -77.033401 
L 234.096572 -77.033401 
L 232.021321 -77.033401 
L 229.94607 -77.033401 
L 227.870819 -77.033401 
L 225.795569 -77.033401 
L 223.720318 -77.033401 
L 221.645067 -77.033401 
L 219.569816 -77.033401 
L 217.494565 -77.033401 
L 215.419314 -77.033401 
L 213.344064 -77.033401 
L 211.268813 -77.033401 
L 209.193562 -77.033401 
L 207.118311 -77.033401 
L 205.04306 -77.033401 
L 202.967809 -77.033401 
L 200.892559 -77.033401 
L 198.817308 -77.033401 
L 196.742057 -77.033401 
L 194.666806 -77.033401 
L 192.591555 -77.033401 
L 190.516304 -77.033401 
L 188.441054 -77.033401 
L 186.365803 -77.033401 
L 184.290552 -77.033401 
L 182.215301 -77.033401 
L 180.14005 -77.033401 
L 178.064799 -77.033401 
L 175.989548 -77.033401 
L 173.914298 -77.033401 
L 171.839047 -77.033401 
L 169.763796 -77.033401 
L 167.688545 -77.033401 
L 165.613294 -77.033401 
L 163.538043 -77.033401 
L 161.462793 -77.033401 
L 159.387542 -77.033401 
L 157.312291 -77.033401 
L 155.23704 -77.033401 
L 153.161789 -77.033401 
L 151.086538 -77.033401 
L 149.011288 -77.033401 
L 146.936037 -77.033401 
L 144.860786 -77.033401 
L 142.785535 -77.033401 
L 140.710284 -77.033401 
L 138.635033 -77.033401 
L 136.559783 -77.033401 
L 134.484532 -77.033401 
L 132.409281 -77.033401 
L 130.33403 -77.033401 
L 128.258779 -77.033401 
L 126.183528 -77.033401 
L 124.108278 -77.033401 
L 122.033027 -77.033401 
L 119.957776 -77.033401 
L 117.882525 -77.033401 
L 115.807274 -77.033401 
L 113.732023 -77.033401 
L 111.656773 -77.033401 
L 109.581522 -77.033401 
L 107.506271 -77.033401 
L 105.43102 -77.033401 
L 103.355769 -77.033401 
L 101.280518 -77.033401 
L 99.205268 -77.033401 
L 97.130017 -77.033401 
L 95.054766 -77.033401 
L 92.979515 -77.033401 
L 90.904264 -77.033401 
L 88.829013 -77.033401 
L 86.753763 -77.033401 
L 84.678512 -77.033401 
L 82.603261 -77.033401 
L 80.52801 -77.033401 
L 78.452759 -77.033401 
L 76.377508 -77.033401 
L 74.302258 -77.033401 
L 72.227007 -77.033401 
L 70.151756 -77.033401 
L 68.076505 -77.033401 
L 66.001254 -77.033401 
L 63.926003 -77.033401 
L 61.850753 -77.033401 
L 59.775502 -77.033401 
L 57.700251 -77.033401 
L 55.625 -77.033401 
z
" style="stroke: #ffd700"/>
    </defs>
    <g clip-path="url(#pc23b6f8684)">
     <use xlink:href="#m281fb864d1" x="0" y="384.107469" style="fill: #ffd700; stroke: #ffd700"/>
    </g>
   </g>
   <g id="line2d_16">
    <path d="M 55.625 303.339147 
L 68.076505 302.773281 
L 101.280518 301.550219 
L 113.732023 300.716374 
L 132.409281 299.175581 
L 169.763796 295.89992 
L 200.892559 292.756962 
L 211.268813 291.577107 
L 219.569816 290.39803 
L 225.795569 289.271429 
L 232.021321 287.85847 
L 236.171823 286.727051 
L 240.322324 285.428193 
L 244.472826 283.953633 
L 248.623328 282.300176 
L 252.773829 280.469301 
L 256.924331 278.466129 
L 263.150084 275.154248 
L 269.375836 271.494578 
L 275.601589 267.498923 
L 281.827341 263.159333 
L 288.053094 258.449073 
L 294.278846 253.33354 
L 300.504599 247.788377 
L 306.730351 241.818887 
L 312.956104 235.47348 
L 321.257107 226.593678 
L 342.009615 204.070216 
L 366.912625 177.703337 
L 373.138378 170.628082 
L 379.36413 163.200684 
L 387.665134 152.855452 
L 400.116639 137.258305 
L 406.342391 129.949632 
L 410.492893 125.410279 
L 414.643395 121.186165 
L 418.793896 117.293465 
L 422.944398 113.723259 
L 427.0949 110.442237 
L 431.245401 107.395957 
L 437.471154 103.11074 
L 447.847408 96.07604 
L 454.073161 91.558432 
L 460.298913 86.686136 
L 468.599916 79.754691 
L 476.90092 72.845476 
L 481.051421 69.670628 
L 485.201923 66.852683 
L 487.277174 65.617894 
L 489.352425 64.519675 
L 491.427676 63.572185 
L 493.502926 62.788316 
L 495.578177 62.179458 
L 497.653428 61.755302 
L 499.728679 61.523676 
L 501.80393 61.490432 
L 503.879181 61.659381 
L 505.954431 62.032272 
L 508.029682 62.608832 
L 510.104933 63.386837 
L 512.180184 64.362251 
L 514.255435 65.529383 
L 516.330686 66.881101 
L 518.405936 68.409057 
L 520.481187 70.103948 
L 524.631689 73.954142 
L 528.782191 78.348357 
L 532.932692 83.20494 
L 537.083194 88.451112 
L 541.233696 94.028219 
L 545.384197 99.894548 
L 551.60995 109.186774 
L 557.835702 119.053425 
L 564.061455 129.509193 
L 570.287207 140.56326 
L 576.51296 152.176888 
L 584.813963 168.320669 
L 599.340719 196.839677 
L 605.566472 208.405305 
L 609.716973 215.688044 
L 613.867475 222.555786 
L 618.017977 228.967607 
L 622.168478 234.904147 
L 626.31898 240.367823 
L 630.469482 245.381224 
L 634.619983 249.983848 
L 638.770485 254.227553 
L 642.920987 258.171175 
L 647.071488 261.874873 
L 653.297241 267.101024 
L 661.598244 273.671509 
L 669.899247 279.931507 
L 676.125 284.404542 
L 676.125 284.404542 
" clip-path="url(#pc23b6f8684)" style="fill: none; stroke: #ffd700; stroke-width: 1.5; stroke-linecap: round"/>
   </g>
   <g id="line2d_17">
    <path d="M 604.686887 319.35325 
L 604.686887 49.21125 
" clip-path="url(#pc23b6f8684)" style="fill: none; stroke-dasharray: 7.4,3.2; stroke-dashoffset: 0; stroke: #ffffff; stroke-width: 2"/>
   </g>
   <g id="patch_3">
    <path d="M 24.6 319.35325 
L 24.6 49.21125 
" style="fill: none"/>
   </g>
   <g id="patch_4">
    <path d="M 707.15 319.35325 
L 707.15 49.21125 
" style="fill: none"/>
   </g>
   <g id="patch_5">
    <path d="M 24.6 319.35325 
L 707.15 319.35325 
" style="fill: none"/>
   </g>
   <g id="patch_6">
    <path d="M 24.6 49.21125 
L 707.15 49.21125 
" style="fill: none"/>
   </g>
   <g id="text_17">
    <!-- This Property's Diversity  -->
    <g style="fill: #262626" transform="translate(255.615625 21.515625) scale(0.2 -0.2)">
     <defs>
      <path id="ArialMT-68" d="M 422 0 
L 422 4581 
L 984 4581 
L 984 2938 
Q 1378 3394 1978 3394 
Q 2347 3394 2619 3248 
Q 2891 3103 3008 2847 
Q 3125 2591 3125 2103 
L 3125 0 
L 2563 0 
L 2563 2103 
Q 2563 2525 2380 2717 
Q 2197 2909 1863 2909 
Q 1613 2909 1392 2779 
Q 1172 2650 1078 2428 
Q 984 2206 984 1816 
L 984 0 
L 422 0 
z
" transform="scale(0.015625)"/>
      <path id="ArialMT-27" d="M 425 2959 
L 281 3816 
L 281 4581 
L 922 4581 
L 922 3816 
L 772 2959 
L 425 2959 
z
" transform="scale(0.015625)"/>
     </defs>
     <use xlink:href="#ArialMT-54"/>
     <use xlink:href="#ArialMT-68" x="61.083984"/>
     <use xlink:href="#ArialMT-69" x="116.699219"/>
     <use xlink:href="#ArialMT-73" x="138.916016"/>
     <use xlink:href="#ArialMT-20" x="188.916016"/>
     <use xlink:href="#ArialMT-50" x="216.699219"/>
     <use xlink:href="#ArialMT-72" x="283.398438"/>
     <use xlink:href="#ArialMT-6f" x="316.699219"/>
     <use xlink:href="#ArialMT-70" x="372.314453"/>
     <use xlink:href="#ArialMT-65" x="427.929688"/>
     <use xlink:href="#ArialMT-72" x="483.544922"/>
     <use xlink:href="#ArialMT-74" x="516.845703"/>
     <use xlink:href="#ArialMT-79" x="544.628906"/>
     <use xlink:href="#ArialMT-27" x="594.628906"/>
     <use xlink:href="#ArialMT-73" x="613.720703"/>
     <use xlink:href="#ArialMT-20" x="663.720703"/>
     <use xlink:href="#ArialMT-44" x="691.503906"/>
     <use xlink:href="#ArialMT-69" x="763.720703"/>
     <use xlink:href="#ArialMT-76" x="785.9375"/>
     <use xlink:href="#ArialMT-65" x="835.9375"/>
     <use xlink:href="#ArialMT-72" x="891.552734"/>
     <use xlink:href="#ArialMT-73" x="924.853516"/>
     <use xlink:href="#ArialMT-69" x="974.853516"/>
     <use xlink:href="#ArialMT-74" x="997.070312"/>
     <use xlink:href="#ArialMT-79" x="1024.853516"/>
     <use xlink:href="#ArialMT-20" x="1074.853516"/>
    </g>
    <!--  vs. Other Domestic Retail REIT Properties -->
    <g style="fill: #262626" transform="translate(176.004687 43.21125) scale(0.2 -0.2)">
     <defs>
      <path id="ArialMT-4f" d="M 309 2231 
Q 309 3372 921 4017 
Q 1534 4663 2503 4663 
Q 3138 4663 3647 4359 
Q 4156 4056 4423 3514 
Q 4691 2972 4691 2284 
Q 4691 1588 4409 1038 
Q 4128 488 3612 205 
Q 3097 -78 2500 -78 
Q 1853 -78 1343 234 
Q 834 547 571 1087 
Q 309 1628 309 2231 
z
M 934 2222 
Q 934 1394 1379 917 
Q 1825 441 2497 441 
Q 3181 441 3623 922 
Q 4066 1403 4066 2288 
Q 4066 2847 3877 3264 
Q 3688 3681 3323 3911 
Q 2959 4141 2506 4141 
Q 1863 4141 1398 3698 
Q 934 3256 934 2222 
z
" transform="scale(0.015625)"/>
      <path id="ArialMT-63" d="M 2588 1216 
L 3141 1144 
Q 3050 572 2676 248 
Q 2303 -75 1759 -75 
Q 1078 -75 664 370 
Q 250 816 250 1647 
Q 250 2184 428 2587 
Q 606 2991 970 3192 
Q 1334 3394 1763 3394 
Q 2303 3394 2647 3120 
Q 2991 2847 3088 2344 
L 2541 2259 
Q 2463 2594 2264 2762 
Q 2066 2931 1784 2931 
Q 1359 2931 1093 2626 
Q 828 2322 828 1663 
Q 828 994 1084 691 
Q 1341 388 1753 388 
Q 2084 388 2306 591 
Q 2528 794 2588 1216 
z
" transform="scale(0.015625)"/>
     </defs>
     <use xlink:href="#ArialMT-20"/>
     <use xlink:href="#ArialMT-76" x="27.783203"/>
     <use xlink:href="#ArialMT-73" x="77.783203"/>
     <use xlink:href="#ArialMT-2e" x="127.783203"/>
     <use xlink:href="#ArialMT-20" x="155.566406"/>
     <use xlink:href="#ArialMT-4f" x="183.349609"/>
     <use xlink:href="#ArialMT-74" x="261.132812"/>
     <use xlink:href="#ArialMT-68" x="288.916016"/>
     <use xlink:href="#ArialMT-65" x="344.53125"/>
     <use xlink:href="#ArialMT-72" x="400.146484"/>
     <use xlink:href="#ArialMT-20" x="433.447266"/>
     <use xlink:href="#ArialMT-44" x="461.230469"/>
     <use xlink:href="#ArialMT-6f" x="533.447266"/>
     <use xlink:href="#ArialMT-6d" x="589.0625"/>
     <use xlink:href="#ArialMT-65" x="672.363281"/>
     <use xlink:href="#ArialMT-73" x="727.978516"/>
     <use xlink:href="#ArialMT-74" x="777.978516"/>
     <use xlink:href="#ArialMT-69" x="805.761719"/>
     <use xlink:href="#ArialMT-63" x="827.978516"/>
     <use xlink:href="#ArialMT-20" x="877.978516"/>
     <use xlink:href="#ArialMT-52" x="905.761719"/>
     <use xlink:href="#ArialMT-65" x="977.978516"/>
     <use xlink:href="#ArialMT-74" x="1033.59375"/>
     <use xlink:href="#ArialMT-61" x="1061.376953"/>
     <use xlink:href="#ArialMT-69" x="1116.992188"/>
     <use xlink:href="#ArialMT-6c" x="1139.208984"/>
     <use xlink:href="#ArialMT-20" x="1161.425781"/>
     <use xlink:href="#ArialMT-52" x="1189.208984"/>
     <use xlink:href="#ArialMT-45" x="1261.425781"/>
     <use xlink:href="#ArialMT-49" x="1328.125"/>
     <use xlink:href="#ArialMT-54" x="1355.908203"/>
     <use xlink:href="#ArialMT-20" x="1415.242188"/>
     <use xlink:href="#ArialMT-50" x="1443.025391"/>
     <use xlink:href="#ArialMT-72" x="1509.724609"/>
     <use xlink:href="#ArialMT-6f" x="1543.025391"/>
     <use xlink:href="#ArialMT-70" x="1598.640625"/>
     <use xlink:href="#ArialMT-65" x="1654.255859"/>
     <use xlink:href="#ArialMT-72" x="1709.871094"/>
     <use xlink:href="#ArialMT-74" x="1743.171875"/>
     <use xlink:href="#ArialMT-69" x="1770.955078"/>
     <use xlink:href="#ArialMT-65" x="1793.171875"/>
     <use xlink:href="#ArialMT-73" x="1848.787109"/>
    </g>
   </g>
   <g id="legend_1">
    <g id="line2d_18">
     <path d="M 33.6 61.990938 
L 43.6 61.990938 
L 53.6 61.990938 
" style="fill: none; stroke: #ffd700; stroke-width: 1.5; stroke-linecap: round"/>
    </g>
    <g id="text_18">
     <!-- Distribution of Diversity Across Retail REITs Nationwide -->
     <g style="fill: #262626" transform="translate(61.6 65.490938) scale(0.1 -0.1)">
      <defs>
       <path id="ArialMT-62" d="M 941 0 
L 419 0 
L 419 4581 
L 981 4581 
L 981 2947 
Q 1338 3394 1891 3394 
Q 2197 3394 2470 3270 
Q 2744 3147 2920 2923 
Q 3097 2700 3197 2384 
Q 3297 2069 3297 1709 
Q 3297 856 2875 390 
Q 2453 -75 1863 -75 
Q 1275 -75 941 416 
L 941 0 
z
M 934 1684 
Q 934 1088 1097 822 
Q 1363 388 1816 388 
Q 2184 388 2453 708 
Q 2722 1028 2722 1663 
Q 2722 2313 2464 2622 
Q 2206 2931 1841 2931 
Q 1472 2931 1203 2611 
Q 934 2291 934 1684 
z
" transform="scale(0.015625)"/>
       <path id="ArialMT-75" d="M 2597 0 
L 2597 488 
Q 2209 -75 1544 -75 
Q 1250 -75 995 37 
Q 741 150 617 320 
Q 494 491 444 738 
Q 409 903 409 1263 
L 409 3319 
L 972 3319 
L 972 1478 
Q 972 1038 1006 884 
Q 1059 663 1231 536 
Q 1403 409 1656 409 
Q 1909 409 2131 539 
Q 2353 669 2445 892 
Q 2538 1116 2538 1541 
L 2538 3319 
L 3100 3319 
L 3100 0 
L 2597 0 
z
" transform="scale(0.015625)"/>
       <path id="ArialMT-77" d="M 1034 0 
L 19 3319 
L 600 3319 
L 1128 1403 
L 1325 691 
Q 1338 744 1497 1375 
L 2025 3319 
L 2603 3319 
L 3100 1394 
L 3266 759 
L 3456 1400 
L 4025 3319 
L 4572 3319 
L 3534 0 
L 2950 0 
L 2422 1988 
L 2294 2553 
L 1622 0 
L 1034 0 
z
" transform="scale(0.015625)"/>
       <path id="ArialMT-64" d="M 2575 0 
L 2575 419 
Q 2259 -75 1647 -75 
Q 1250 -75 917 144 
Q 584 363 401 755 
Q 219 1147 219 1656 
Q 219 2153 384 2558 
Q 550 2963 881 3178 
Q 1213 3394 1622 3394 
Q 1922 3394 2156 3267 
Q 2391 3141 2538 2938 
L 2538 4581 
L 3097 4581 
L 3097 0 
L 2575 0 
z
M 797 1656 
Q 797 1019 1065 703 
Q 1334 388 1700 388 
Q 2069 388 2326 689 
Q 2584 991 2584 1609 
Q 2584 2291 2321 2609 
Q 2059 2928 1675 2928 
Q 1300 2928 1048 2622 
Q 797 2316 797 1656 
z
" transform="scale(0.015625)"/>
      </defs>
      <use xlink:href="#ArialMT-44"/>
      <use xlink:href="#ArialMT-69" x="72.216797"/>
      <use xlink:href="#ArialMT-73" x="94.433594"/>
      <use xlink:href="#ArialMT-74" x="144.433594"/>
      <use xlink:href="#ArialMT-72" x="172.216797"/>
      <use xlink:href="#ArialMT-69" x="205.517578"/>
      <use xlink:href="#ArialMT-62" x="227.734375"/>
      <use xlink:href="#ArialMT-75" x="283.349609"/>
      <use xlink:href="#ArialMT-74" x="338.964844"/>
      <use xlink:href="#ArialMT-69" x="366.748047"/>
      <use xlink:href="#ArialMT-6f" x="388.964844"/>
      <use xlink:href="#ArialMT-6e" x="444.580078"/>
      <use xlink:href="#ArialMT-20" x="500.195312"/>
      <use xlink:href="#ArialMT-6f" x="527.978516"/>
      <use xlink:href="#ArialMT-66" x="583.59375"/>
      <use xlink:href="#ArialMT-20" x="611.376953"/>
      <use xlink:href="#ArialMT-44" x="639.160156"/>
      <use xlink:href="#ArialMT-69" x="711.376953"/>
      <use xlink:href="#ArialMT-76" x="733.59375"/>
      <use xlink:href="#ArialMT-65" x="783.59375"/>
      <use xlink:href="#ArialMT-72" x="839.208984"/>
      <use xlink:href="#ArialMT-73" x="872.509766"/>
      <use xlink:href="#ArialMT-69" x="922.509766"/>
      <use xlink:href="#ArialMT-74" x="944.726562"/>
      <use xlink:href="#ArialMT-79" x="972.509766"/>
      <use xlink:href="#ArialMT-20" x="1022.509766"/>
      <use xlink:href="#ArialMT-41" x="1044.792969"/>
      <use xlink:href="#ArialMT-63" x="1111.492188"/>
      <use xlink:href="#ArialMT-72" x="1161.492188"/>
      <use xlink:href="#ArialMT-6f" x="1194.792969"/>
      <use xlink:href="#ArialMT-73" x="1250.408203"/>
      <use xlink:href="#ArialMT-73" x="1300.408203"/>
      <use xlink:href="#ArialMT-20" x="1350.408203"/>
      <use xlink:href="#ArialMT-52" x="1378.191406"/>
      <use xlink:href="#ArialMT-65" x="1450.408203"/>
      <use xlink:href="#ArialMT-74" x="1506.023438"/>
      <use xlink:href="#ArialMT-61" x="1533.806641"/>
      <use xlink:href="#ArialMT-69" x="1589.421875"/>
      <use xlink:href="#ArialMT-6c" x="1611.638672"/>
      <use xlink:href="#ArialMT-20" x="1633.855469"/>
      <use xlink:href="#ArialMT-52" x="1661.638672"/>
      <use xlink:href="#ArialMT-45" x="1733.855469"/>
      <use xlink:href="#ArialMT-49" x="1800.554688"/>
      <use xlink:href="#ArialMT-54" x="1828.337891"/>
      <use xlink:href="#ArialMT-73" x="1878.296875"/>
      <use xlink:href="#ArialMT-20" x="1928.296875"/>
      <use xlink:href="#ArialMT-4e" x="1956.080078"/>
      <use xlink:href="#ArialMT-61" x="2028.296875"/>
      <use xlink:href="#ArialMT-74" x="2083.912109"/>
      <use xlink:href="#ArialMT-69" x="2111.695312"/>
      <use xlink:href="#ArialMT-6f" x="2133.912109"/>
      <use xlink:href="#ArialMT-6e" x="2189.527344"/>
      <use xlink:href="#ArialMT-77" x="2245.142578"/>
      <use xlink:href="#ArialMT-69" x="2317.359375"/>
      <use xlink:href="#ArialMT-64" x="2339.576172"/>
      <use xlink:href="#ArialMT-65" x="2395.191406"/>
     </g>
    </g>
    <g id="line2d_19">
     <path d="M 33.6 76.253438 
L 43.6 76.253438 
L 53.6 76.253438 
" style="fill: none; stroke-dasharray: 7.4,3.2; stroke-dashoffset: 0; stroke: #ffffff; stroke-width: 2"/>
    </g>
    <g id="text_19">
     <!-- This Property's Diversity -->
     <g style="fill: #262626" transform="translate(61.6 79.753438) scale(0.1 -0.1)">
      <use xlink:href="#ArialMT-54"/>
      <use xlink:href="#ArialMT-68" x="61.083984"/>
      <use xlink:href="#ArialMT-69" x="116.699219"/>
      <use xlink:href="#ArialMT-73" x="138.916016"/>
      <use xlink:href="#ArialMT-20" x="188.916016"/>
      <use xlink:href="#ArialMT-50" x="216.699219"/>
      <use xlink:href="#ArialMT-72" x="283.398438"/>
      <use xlink:href="#ArialMT-6f" x="316.699219"/>
      <use xlink:href="#ArialMT-70" x="372.314453"/>
      <use xlink:href="#ArialMT-65" x="427.929688"/>
      <use xlink:href="#ArialMT-72" x="483.544922"/>
      <use xlink:href="#ArialMT-74" x="516.845703"/>
      <use xlink:href="#ArialMT-79" x="544.628906"/>
      <use xlink:href="#ArialMT-27" x="594.628906"/>
      <use xlink:href="#ArialMT-73" x="613.720703"/>
      <use xlink:href="#ArialMT-20" x="663.720703"/>
      <use xlink:href="#ArialMT-44" x="691.503906"/>
      <use xlink:href="#ArialMT-69" x="763.720703"/>
      <use xlink:href="#ArialMT-76" x="785.9375"/>
      <use xlink:href="#ArialMT-65" x="835.9375"/>
      <use xlink:href="#ArialMT-72" x="891.552734"/>
      <use xlink:href="#ArialMT-73" x="924.853516"/>
      <use xlink:href="#ArialMT-69" x="974.853516"/>
      <use xlink:href="#ArialMT-74" x="997.070312"/>
      <use xlink:href="#ArialMT-79" x="1024.853516"/>
     </g>
    </g>
   </g>
  </g>
  <g id="text_20">
   <!-- This graph shows how diverse most US Retail REIT properties are. Your property is highlighted by the vertical line. The peak represents the average Diversity. -->
   <g style="fill: #ffffff" transform="translate(42.753281 375.01325) scale(0.09 -0.09)">
    <defs>
     <path id="ArialMT-55" d="M 3500 4581 
L 4106 4581 
L 4106 1934 
Q 4106 1244 3950 837 
Q 3794 431 3386 176 
Q 2978 -78 2316 -78 
Q 1672 -78 1262 144 
Q 853 366 678 786 
Q 503 1206 503 1934 
L 503 4581 
L 1109 4581 
L 1109 1938 
Q 1109 1341 1220 1058 
Q 1331 775 1601 622 
Q 1872 469 2263 469 
Q 2931 469 3215 772 
Q 3500 1075 3500 1938 
L 3500 4581 
z
" transform="scale(0.015625)"/>
     <path id="ArialMT-53" d="M 288 1472 
L 859 1522 
Q 900 1178 1048 958 
Q 1197 738 1509 602 
Q 1822 466 2213 466 
Q 2559 466 2825 569 
Q 3091 672 3220 851 
Q 3350 1031 3350 1244 
Q 3350 1459 3225 1620 
Q 3100 1781 2813 1891 
Q 2628 1963 1997 2114 
Q 1366 2266 1113 2400 
Q 784 2572 623 2826 
Q 463 3081 463 3397 
Q 463 3744 659 4045 
Q 856 4347 1234 4503 
Q 1613 4659 2075 4659 
Q 2584 4659 2973 4495 
Q 3363 4331 3572 4012 
Q 3781 3694 3797 3291 
L 3216 3247 
Q 3169 3681 2898 3903 
Q 2628 4125 2100 4125 
Q 1550 4125 1298 3923 
Q 1047 3722 1047 3438 
Q 1047 3191 1225 3031 
Q 1400 2872 2139 2705 
Q 2878 2538 3153 2413 
Q 3553 2228 3743 1945 
Q 3934 1663 3934 1294 
Q 3934 928 3725 604 
Q 3516 281 3123 101 
Q 2731 -78 2241 -78 
Q 1619 -78 1198 103 
Q 778 284 539 648 
Q 300 1013 288 1472 
z
" transform="scale(0.015625)"/>
     <path id="ArialMT-59" d="M 1784 0 
L 1784 1941 
L 19 4581 
L 756 4581 
L 1659 3200 
Q 1909 2813 2125 2425 
Q 2331 2784 2625 3234 
L 3513 4581 
L 4219 4581 
L 2391 1941 
L 2391 0 
L 1784 0 
z
" transform="scale(0.015625)"/>
     <path id="ArialMT-6b" d="M 425 0 
L 425 4581 
L 988 4581 
L 988 1969 
L 2319 3319 
L 3047 3319 
L 1778 2088 
L 3175 0 
L 2481 0 
L 1384 1697 
L 988 1316 
L 988 0 
L 425 0 
z
" transform="scale(0.015625)"/>
    </defs>
    <use xlink:href="#ArialMT-54"/>
    <use xlink:href="#ArialMT-68" x="61.083984"/>
    <use xlink:href="#ArialMT-69" x="116.699219"/>
    <use xlink:href="#ArialMT-73" x="138.916016"/>
    <use xlink:href="#ArialMT-20" x="188.916016"/>
    <use xlink:href="#ArialMT-67" x="216.699219"/>
    <use xlink:href="#ArialMT-72" x="272.314453"/>
    <use xlink:href="#ArialMT-61" x="305.615234"/>
    <use xlink:href="#ArialMT-70" x="361.230469"/>
    <use xlink:href="#ArialMT-68" x="416.845703"/>
    <use xlink:href="#ArialMT-20" x="472.460938"/>
    <use xlink:href="#ArialMT-73" x="500.244141"/>
    <use xlink:href="#ArialMT-68" x="550.244141"/>
    <use xlink:href="#ArialMT-6f" x="605.859375"/>
    <use xlink:href="#ArialMT-77" x="661.474609"/>
    <use xlink:href="#ArialMT-73" x="733.691406"/>
    <use xlink:href="#ArialMT-20" x="783.691406"/>
    <use xlink:href="#ArialMT-68" x="811.474609"/>
    <use xlink:href="#ArialMT-6f" x="867.089844"/>
    <use xlink:href="#ArialMT-77" x="922.705078"/>
    <use xlink:href="#ArialMT-20" x="994.921875"/>
    <use xlink:href="#ArialMT-64" x="1022.705078"/>
    <use xlink:href="#ArialMT-69" x="1078.320312"/>
    <use xlink:href="#ArialMT-76" x="1100.537109"/>
    <use xlink:href="#ArialMT-65" x="1150.537109"/>
    <use xlink:href="#ArialMT-72" x="1206.152344"/>
    <use xlink:href="#ArialMT-73" x="1239.453125"/>
    <use xlink:href="#ArialMT-65" x="1289.453125"/>
    <use xlink:href="#ArialMT-20" x="1345.068359"/>
    <use xlink:href="#ArialMT-6d" x="1372.851562"/>
    <use xlink:href="#ArialMT-6f" x="1456.152344"/>
    <use xlink:href="#ArialMT-73" x="1511.767578"/>
    <use xlink:href="#ArialMT-74" x="1561.767578"/>
    <use xlink:href="#ArialMT-20" x="1589.550781"/>
    <use xlink:href="#ArialMT-55" x="1617.333984"/>
    <use xlink:href="#ArialMT-53" x="1689.550781"/>
    <use xlink:href="#ArialMT-20" x="1756.25"/>
    <use xlink:href="#ArialMT-52" x="1784.033203"/>
    <use xlink:href="#ArialMT-65" x="1856.25"/>
    <use xlink:href="#ArialMT-74" x="1911.865234"/>
    <use xlink:href="#ArialMT-61" x="1939.648438"/>
    <use xlink:href="#ArialMT-69" x="1995.263672"/>
    <use xlink:href="#ArialMT-6c" x="2017.480469"/>
    <use xlink:href="#ArialMT-20" x="2039.697266"/>
    <use xlink:href="#ArialMT-52" x="2067.480469"/>
    <use xlink:href="#ArialMT-45" x="2139.697266"/>
    <use xlink:href="#ArialMT-49" x="2206.396484"/>
    <use xlink:href="#ArialMT-54" x="2234.179688"/>
    <use xlink:href="#ArialMT-20" x="2293.513672"/>
    <use xlink:href="#ArialMT-70" x="2321.296875"/>
    <use xlink:href="#ArialMT-72" x="2376.912109"/>
    <use xlink:href="#ArialMT-6f" x="2410.212891"/>
    <use xlink:href="#ArialMT-70" x="2465.828125"/>
    <use xlink:href="#ArialMT-65" x="2521.443359"/>
    <use xlink:href="#ArialMT-72" x="2577.058594"/>
    <use xlink:href="#ArialMT-74" x="2610.359375"/>
    <use xlink:href="#ArialMT-69" x="2638.142578"/>
    <use xlink:href="#ArialMT-65" x="2660.359375"/>
    <use xlink:href="#ArialMT-73" x="2715.974609"/>
    <use xlink:href="#ArialMT-20" x="2765.974609"/>
    <use xlink:href="#ArialMT-61" x="2793.757812"/>
    <use xlink:href="#ArialMT-72" x="2849.373047"/>
    <use xlink:href="#ArialMT-65" x="2882.673828"/>
    <use xlink:href="#ArialMT-2e" x="2938.289062"/>
    <use xlink:href="#ArialMT-20" x="2966.072266"/>
    <use xlink:href="#ArialMT-59" x="2992.105469"/>
    <use xlink:href="#ArialMT-6f" x="3049.679688"/>
    <use xlink:href="#ArialMT-75" x="3105.294922"/>
    <use xlink:href="#ArialMT-72" x="3160.910156"/>
    <use xlink:href="#ArialMT-20" x="3194.210938"/>
    <use xlink:href="#ArialMT-70" x="3221.994141"/>
    <use xlink:href="#ArialMT-72" x="3277.609375"/>
    <use xlink:href="#ArialMT-6f" x="3310.910156"/>
    <use xlink:href="#ArialMT-70" x="3366.525391"/>
    <use xlink:href="#ArialMT-65" x="3422.140625"/>
    <use xlink:href="#ArialMT-72" x="3477.755859"/>
    <use xlink:href="#ArialMT-74" x="3511.056641"/>
    <use xlink:href="#ArialMT-79" x="3538.839844"/>
    <use xlink:href="#ArialMT-20" x="3588.839844"/>
    <use xlink:href="#ArialMT-69" x="3616.623047"/>
    <use xlink:href="#ArialMT-73" x="3638.839844"/>
    <use xlink:href="#ArialMT-20" x="3688.839844"/>
    <use xlink:href="#ArialMT-68" x="3716.623047"/>
    <use xlink:href="#ArialMT-69" x="3772.238281"/>
    <use xlink:href="#ArialMT-67" x="3794.455078"/>
    <use xlink:href="#ArialMT-68" x="3850.070312"/>
    <use xlink:href="#ArialMT-6c" x="3905.685547"/>
    <use xlink:href="#ArialMT-69" x="3927.902344"/>
    <use xlink:href="#ArialMT-67" x="3950.119141"/>
    <use xlink:href="#ArialMT-68" x="4005.734375"/>
    <use xlink:href="#ArialMT-74" x="4061.349609"/>
    <use xlink:href="#ArialMT-65" x="4089.132812"/>
    <use xlink:href="#ArialMT-64" x="4144.748047"/>
    <use xlink:href="#ArialMT-20" x="4200.363281"/>
    <use xlink:href="#ArialMT-62" x="4228.146484"/>
    <use xlink:href="#ArialMT-79" x="4283.761719"/>
    <use xlink:href="#ArialMT-20" x="4333.761719"/>
    <use xlink:href="#ArialMT-74" x="4361.544922"/>
    <use xlink:href="#ArialMT-68" x="4389.328125"/>
    <use xlink:href="#ArialMT-65" x="4444.943359"/>
    <use xlink:href="#ArialMT-20" x="4500.558594"/>
    <use xlink:href="#ArialMT-76" x="4528.341797"/>
    <use xlink:href="#ArialMT-65" x="4578.341797"/>
    <use xlink:href="#ArialMT-72" x="4633.957031"/>
    <use xlink:href="#ArialMT-74" x="4667.257812"/>
    <use xlink:href="#ArialMT-69" x="4695.041016"/>
    <use xlink:href="#ArialMT-63" x="4717.257812"/>
    <use xlink:href="#ArialMT-61" x="4767.257812"/>
    <use xlink:href="#ArialMT-6c" x="4822.873047"/>
    <use xlink:href="#ArialMT-20" x="4845.089844"/>
    <use xlink:href="#ArialMT-6c" x="4872.873047"/>
    <use xlink:href="#ArialMT-69" x="4895.089844"/>
    <use xlink:href="#ArialMT-6e" x="4917.306641"/>
    <use xlink:href="#ArialMT-65" x="4972.921875"/>
    <use xlink:href="#ArialMT-2e" x="5028.537109"/>
    <use xlink:href="#ArialMT-20" x="5056.320312"/>
    <use xlink:href="#ArialMT-54" x="5082.353516"/>
    <use xlink:href="#ArialMT-68" x="5143.4375"/>
    <use xlink:href="#ArialMT-65" x="5199.052734"/>
    <use xlink:href="#ArialMT-20" x="5254.667969"/>
    <use xlink:href="#ArialMT-70" x="5282.451172"/>
    <use xlink:href="#ArialMT-65" x="5338.066406"/>
    <use xlink:href="#ArialMT-61" x="5393.681641"/>
    <use xlink:href="#ArialMT-6b" x="5449.296875"/>
    <use xlink:href="#ArialMT-20" x="5499.296875"/>
    <use xlink:href="#ArialMT-72" x="5527.080078"/>
    <use xlink:href="#ArialMT-65" x="5560.380859"/>
    <use xlink:href="#ArialMT-70" x="5615.996094"/>
    <use xlink:href="#ArialMT-72" x="5671.611328"/>
    <use xlink:href="#ArialMT-65" x="5704.912109"/>
    <use xlink:href="#ArialMT-73" x="5760.527344"/>
    <use xlink:href="#ArialMT-65" x="5810.527344"/>
    <use xlink:href="#ArialMT-6e" x="5866.142578"/>
    <use xlink:href="#ArialMT-74" x="5921.757812"/>
    <use xlink:href="#ArialMT-73" x="5949.541016"/>
    <use xlink:href="#ArialMT-20" x="5999.541016"/>
    <use xlink:href="#ArialMT-74" x="6027.324219"/>
    <use xlink:href="#ArialMT-68" x="6055.107422"/>
    <use xlink:href="#ArialMT-65" x="6110.722656"/>
    <use xlink:href="#ArialMT-20" x="6166.337891"/>
    <use xlink:href="#ArialMT-61" x="6194.121094"/>
    <use xlink:href="#ArialMT-76" x="6249.736328"/>
    <use xlink:href="#ArialMT-65" x="6299.736328"/>
    <use xlink:href="#ArialMT-72" x="6355.351562"/>
    <use xlink:href="#ArialMT-61" x="6388.652344"/>
    <use xlink:href="#ArialMT-67" x="6444.267578"/>
    <use xlink:href="#ArialMT-65" x="6499.882812"/>
    <use xlink:href="#ArialMT-20" x="6555.498047"/>
    <use xlink:href="#ArialMT-44" x="6583.28125"/>
    <use xlink:href="#ArialMT-69" x="6655.498047"/>
    <use xlink:href="#ArialMT-76" x="6677.714844"/>
    <use xlink:href="#ArialMT-65" x="6727.714844"/>
    <use xlink:href="#ArialMT-72" x="6783.330078"/>
    <use xlink:href="#ArialMT-73" x="6816.630859"/>
    <use xlink:href="#ArialMT-69" x="6866.630859"/>
    <use xlink:href="#ArialMT-74" x="6888.847656"/>
    <use xlink:href="#ArialMT-79" x="6916.630859"/>
    <use xlink:href="#ArialMT-2e" x="6959.255859"/>
   </g>
  </g>
 </g>
 <defs>
  <clipPath id="pc23b6f8684">
   <rect x="24.6" y="49.21125" width="682.55" height="270.142"/>
  </clipPath>
 </defs>
</svg>
