<?xml version="1.0" encoding="utf-8" standalone="no"?>
<!DOCTYPE svg PUBLIC "-//W3C//DTD SVG 1.1//EN"
  "http://www.w3.org/Graphics/SVG/1.1/DTD/svg11.dtd">
<svg xmlns:xlink="http://www.w3.org/1999/xlink" width="714.380937pt" height="384.351219pt" viewBox="0 0 714.380937 384.351219" xmlns="http://www.w3.org/2000/svg" version="1.1">
 <metadata>
  <rdf:RDF xmlns:dc="http://purl.org/dc/elements/1.1/" xmlns:cc="http://creativecommons.org/ns#" xmlns:rdf="http://www.w3.org/1999/02/22-rdf-syntax-ns#">
   <cc:Work>
    <dc:type rdf:resource="http://purl.org/dc/dcmitype/StillImage"/>
    <dc:date>2024-01-03T13:16:07.044775</dc:date>
    <dc:format>image/svg+xml</dc:format>
    <dc:creator>
     <cc:Agent>
      <dc:title>Matplotlib v3.8.1, https://matplotlib.org/</dc:title>
     </cc:Agent>
    </dc:creator>
   </cc:Work>
  </rdf:RDF>
 </metadata>
 <defs>
  <style type="text/css">*{stroke-linejoin: round; stroke-linecap: butt}</style>
 </defs>
 <g id="figure_1">
  <g id="patch_1">
   <path d="M 0 384.351219 
L 714.380937 384.351219 
L 714.380937 0 
L 0 0 
z
" style="fill: #ffffff"/>
  </g>
  <g id="axes_1">
   <g id="patch_2">
    <path d="M 16.260938 319.597 
L 707.180938 319.597 
L 707.180938 49.455 
L 16.260938 49.455 
z
" style="fill: #eaeaf2"/>
   </g>
   <g id="matplotlib.axis_1">
    <g id="xtick_1">
     <g id="line2d_1"/>
     <g id="text_1">
      <!-- 0% -->
      <g style="fill: #262626" transform="translate(34.64334 330.254812) scale(0.1 -0.1)">
       <defs>
        <path id="ArialMT-30" d="M 266 2259 
Q 266 3072 433 3567 
Q 600 4063 929 4331 
Q 1259 4600 1759 4600 
Q 2128 4600 2406 4451 
Q 2684 4303 2865 4023 
Q 3047 3744 3150 3342 
Q 3253 2941 3253 2259 
Q 3253 1453 3087 958 
Q 2922 463 2592 192 
Q 2263 -78 1759 -78 
Q 1097 -78 719 397 
Q 266 969 266 2259 
z
M 844 2259 
Q 844 1131 1108 757 
Q 1372 384 1759 384 
Q 2147 384 2411 759 
Q 2675 1134 2675 2259 
Q 2675 3391 2411 3762 
Q 2147 4134 1753 4134 
Q 1366 4134 1134 3806 
Q 844 3388 844 2259 
z
" transform="scale(0.015625)"/>
        <path id="ArialMT-25" d="M 372 3481 
Q 372 3972 619 4315 
Q 866 4659 1334 4659 
Q 1766 4659 2048 4351 
Q 2331 4044 2331 3447 
Q 2331 2866 2045 2552 
Q 1759 2238 1341 2238 
Q 925 2238 648 2547 
Q 372 2856 372 3481 
z
M 1350 4272 
Q 1141 4272 1002 4090 
Q 863 3909 863 3425 
Q 863 2984 1003 2804 
Q 1144 2625 1350 2625 
Q 1563 2625 1702 2806 
Q 1841 2988 1841 3469 
Q 1841 3913 1700 4092 
Q 1559 4272 1350 4272 
z
M 1353 -169 
L 3859 4659 
L 4316 4659 
L 1819 -169 
L 1353 -169 
z
M 3334 1075 
Q 3334 1569 3581 1911 
Q 3828 2253 4300 2253 
Q 4731 2253 5014 1945 
Q 5297 1638 5297 1041 
Q 5297 459 5011 145 
Q 4725 -169 4303 -169 
Q 3888 -169 3611 142 
Q 3334 453 3334 1075 
z
M 4316 1866 
Q 4103 1866 3964 1684 
Q 3825 1503 3825 1019 
Q 3825 581 3965 400 
Q 4106 219 4313 219 
Q 4528 219 4667 400 
Q 4806 581 4806 1063 
Q 4806 1506 4665 1686 
Q 4525 1866 4316 1866 
z
" transform="scale(0.015625)"/>
       </defs>
       <use xlink:href="#ArialMT-30"/>
       <use xlink:href="#ArialMT-25" x="55.615234"/>
      </g>
     </g>
    </g>
    <g id="xtick_2">
     <g id="line2d_2"/>
     <g id="text_2">
      <!-- 10% -->
      <g style="fill: #262626" transform="translate(109.429798 330.254812) scale(0.1 -0.1)">
       <defs>
        <path id="ArialMT-31" d="M 2384 0 
L 1822 0 
L 1822 3584 
Q 1619 3391 1289 3197 
Q 959 3003 697 2906 
L 697 3450 
Q 1169 3672 1522 3987 
Q 1875 4303 2022 4600 
L 2384 4600 
L 2384 0 
z
" transform="scale(0.015625)"/>
       </defs>
       <use xlink:href="#ArialMT-31"/>
       <use xlink:href="#ArialMT-30" x="55.615234"/>
       <use xlink:href="#ArialMT-25" x="111.230469"/>
      </g>
     </g>
    </g>
    <g id="xtick_3">
     <g id="line2d_3"/>
     <g id="text_3">
      <!-- 20% -->
      <g style="fill: #262626" transform="translate(186.996725 330.254812) scale(0.1 -0.1)">
       <defs>
        <path id="ArialMT-32" d="M 3222 541 
L 3222 0 
L 194 0 
Q 188 203 259 391 
Q 375 700 629 1000 
Q 884 1300 1366 1694 
Q 2113 2306 2375 2664 
Q 2638 3022 2638 3341 
Q 2638 3675 2398 3904 
Q 2159 4134 1775 4134 
Q 1369 4134 1125 3890 
Q 881 3647 878 3216 
L 300 3275 
Q 359 3922 746 4261 
Q 1134 4600 1788 4600 
Q 2447 4600 2831 4234 
Q 3216 3869 3216 3328 
Q 3216 3053 3103 2787 
Q 2991 2522 2730 2228 
Q 2469 1934 1863 1422 
Q 1356 997 1212 845 
Q 1069 694 975 541 
L 3222 541 
z
" transform="scale(0.015625)"/>
       </defs>
       <use xlink:href="#ArialMT-32"/>
       <use xlink:href="#ArialMT-30" x="55.615234"/>
       <use xlink:href="#ArialMT-25" x="111.230469"/>
      </g>
     </g>
    </g>
    <g id="xtick_4">
     <g id="line2d_4"/>
     <g id="text_4">
      <!-- 30% -->
      <g style="fill: #262626" transform="translate(264.563652 330.254812) scale(0.1 -0.1)">
       <defs>
        <path id="ArialMT-33" d="M 269 1209 
L 831 1284 
Q 928 806 1161 595 
Q 1394 384 1728 384 
Q 2125 384 2398 659 
Q 2672 934 2672 1341 
Q 2672 1728 2419 1979 
Q 2166 2231 1775 2231 
Q 1616 2231 1378 2169 
L 1441 2663 
Q 1497 2656 1531 2656 
Q 1891 2656 2178 2843 
Q 2466 3031 2466 3422 
Q 2466 3731 2256 3934 
Q 2047 4138 1716 4138 
Q 1388 4138 1169 3931 
Q 950 3725 888 3313 
L 325 3413 
Q 428 3978 793 4289 
Q 1159 4600 1703 4600 
Q 2078 4600 2393 4439 
Q 2709 4278 2876 4000 
Q 3044 3722 3044 3409 
Q 3044 3113 2884 2869 
Q 2725 2625 2413 2481 
Q 2819 2388 3044 2092 
Q 3269 1797 3269 1353 
Q 3269 753 2831 336 
Q 2394 -81 1725 -81 
Q 1122 -81 723 278 
Q 325 638 269 1209 
z
" transform="scale(0.015625)"/>
       </defs>
       <use xlink:href="#ArialMT-33"/>
       <use xlink:href="#ArialMT-30" x="55.615234"/>
       <use xlink:href="#ArialMT-25" x="111.230469"/>
      </g>
     </g>
    </g>
    <g id="xtick_5">
     <g id="line2d_5"/>
     <g id="text_5">
      <!-- 40% -->
      <g style="fill: #262626" transform="translate(342.130579 330.254812) scale(0.1 -0.1)">
       <defs>
        <path id="ArialMT-34" d="M 2069 0 
L 2069 1097 
L 81 1097 
L 81 1613 
L 2172 4581 
L 2631 4581 
L 2631 1613 
L 3250 1613 
L 3250 1097 
L 2631 1097 
L 2631 0 
L 2069 0 
z
M 2069 1613 
L 2069 3678 
L 634 1613 
L 2069 1613 
z
" transform="scale(0.015625)"/>
       </defs>
       <use xlink:href="#ArialMT-34"/>
       <use xlink:href="#ArialMT-30" x="55.615234"/>
       <use xlink:href="#ArialMT-25" x="111.230469"/>
      </g>
     </g>
    </g>
    <g id="xtick_6">
     <g id="line2d_6"/>
     <g id="text_6">
      <!-- 50% -->
      <g style="fill: #262626" transform="translate(419.697506 330.254812) scale(0.1 -0.1)">
       <defs>
        <path id="ArialMT-35" d="M 266 1200 
L 856 1250 
Q 922 819 1161 601 
Q 1400 384 1738 384 
Q 2144 384 2425 690 
Q 2706 997 2706 1503 
Q 2706 1984 2436 2262 
Q 2166 2541 1728 2541 
Q 1456 2541 1237 2417 
Q 1019 2294 894 2097 
L 366 2166 
L 809 4519 
L 3088 4519 
L 3088 3981 
L 1259 3981 
L 1013 2750 
Q 1425 3038 1878 3038 
Q 2478 3038 2890 2622 
Q 3303 2206 3303 1553 
Q 3303 931 2941 478 
Q 2500 -78 1738 -78 
Q 1113 -78 717 272 
Q 322 622 266 1200 
z
" transform="scale(0.015625)"/>
       </defs>
       <use xlink:href="#ArialMT-35"/>
       <use xlink:href="#ArialMT-30" x="55.615234"/>
       <use xlink:href="#ArialMT-25" x="111.230469"/>
      </g>
     </g>
    </g>
    <g id="xtick_7">
     <g id="line2d_7"/>
     <g id="text_7">
      <!-- 60% -->
      <g style="fill: #262626" transform="translate(497.264433 330.254812) scale(0.1 -0.1)">
       <defs>
        <path id="ArialMT-36" d="M 3184 3459 
L 2625 3416 
Q 2550 3747 2413 3897 
Q 2184 4138 1850 4138 
Q 1581 4138 1378 3988 
Q 1113 3794 959 3422 
Q 806 3050 800 2363 
Q 1003 2672 1297 2822 
Q 1591 2972 1913 2972 
Q 2475 2972 2870 2558 
Q 3266 2144 3266 1488 
Q 3266 1056 3080 686 
Q 2894 316 2569 119 
Q 2244 -78 1831 -78 
Q 1128 -78 684 439 
Q 241 956 241 2144 
Q 241 3472 731 4075 
Q 1159 4600 1884 4600 
Q 2425 4600 2770 4297 
Q 3116 3994 3184 3459 
z
M 888 1484 
Q 888 1194 1011 928 
Q 1134 663 1356 523 
Q 1578 384 1822 384 
Q 2178 384 2434 671 
Q 2691 959 2691 1453 
Q 2691 1928 2437 2201 
Q 2184 2475 1800 2475 
Q 1419 2475 1153 2201 
Q 888 1928 888 1484 
z
" transform="scale(0.015625)"/>
       </defs>
       <use xlink:href="#ArialMT-36"/>
       <use xlink:href="#ArialMT-30" x="55.615234"/>
       <use xlink:href="#ArialMT-25" x="111.230469"/>
      </g>
     </g>
    </g>
    <g id="xtick_8">
     <g id="line2d_8"/>
     <g id="text_8">
      <!-- 70% -->
      <g style="fill: #262626" transform="translate(574.83136 330.254812) scale(0.1 -0.1)">
       <defs>
        <path id="ArialMT-37" d="M 303 3981 
L 303 4522 
L 3269 4522 
L 3269 4084 
Q 2831 3619 2401 2847 
Q 1972 2075 1738 1259 
Q 1569 684 1522 0 
L 944 0 
Q 953 541 1156 1306 
Q 1359 2072 1739 2783 
Q 2119 3494 2547 3981 
L 303 3981 
z
" transform="scale(0.015625)"/>
       </defs>
       <use xlink:href="#ArialMT-37"/>
       <use xlink:href="#ArialMT-30" x="55.615234"/>
       <use xlink:href="#ArialMT-25" x="111.230469"/>
      </g>
     </g>
    </g>
    <g id="xtick_9">
     <g id="line2d_9"/>
     <g id="text_9">
      <!-- 80% -->
      <g style="fill: #262626" transform="translate(652.398287 330.254812) scale(0.1 -0.1)">
       <defs>
        <path id="ArialMT-38" d="M 1131 2484 
Q 781 2613 612 2850 
Q 444 3088 444 3419 
Q 444 3919 803 4259 
Q 1163 4600 1759 4600 
Q 2359 4600 2725 4251 
Q 3091 3903 3091 3403 
Q 3091 3084 2923 2848 
Q 2756 2613 2416 2484 
Q 2838 2347 3058 2040 
Q 3278 1734 3278 1309 
Q 3278 722 2862 322 
Q 2447 -78 1769 -78 
Q 1091 -78 675 323 
Q 259 725 259 1325 
Q 259 1772 486 2073 
Q 713 2375 1131 2484 
z
M 1019 3438 
Q 1019 3113 1228 2906 
Q 1438 2700 1772 2700 
Q 2097 2700 2305 2904 
Q 2513 3109 2513 3406 
Q 2513 3716 2298 3927 
Q 2084 4138 1766 4138 
Q 1444 4138 1231 3931 
Q 1019 3725 1019 3438 
z
M 838 1322 
Q 838 1081 952 856 
Q 1066 631 1291 507 
Q 1516 384 1775 384 
Q 2178 384 2440 643 
Q 2703 903 2703 1303 
Q 2703 1709 2433 1975 
Q 2163 2241 1756 2241 
Q 1359 2241 1098 1978 
Q 838 1716 838 1322 
z
" transform="scale(0.015625)"/>
       </defs>
       <use xlink:href="#ArialMT-38"/>
       <use xlink:href="#ArialMT-30" x="55.615234"/>
       <use xlink:href="#ArialMT-25" x="111.230469"/>
      </g>
     </g>
    </g>
    <g id="text_10">
     <!-- Competitiveness Among a National Porfolio of Retail REIT Properties -->
     <g style="fill: #262626" transform="translate(208.96625 343.522) scale(0.1 -0.1)">
      <defs>
       <path id="ArialMT-43" d="M 3763 1606 
L 4369 1453 
Q 4178 706 3683 314 
Q 3188 -78 2472 -78 
Q 1731 -78 1267 223 
Q 803 525 561 1097 
Q 319 1669 319 2325 
Q 319 3041 592 3573 
Q 866 4106 1370 4382 
Q 1875 4659 2481 4659 
Q 3169 4659 3637 4309 
Q 4106 3959 4291 3325 
L 3694 3184 
Q 3534 3684 3231 3912 
Q 2928 4141 2469 4141 
Q 1941 4141 1586 3887 
Q 1231 3634 1087 3207 
Q 944 2781 944 2328 
Q 944 1744 1114 1308 
Q 1284 872 1643 656 
Q 2003 441 2422 441 
Q 2931 441 3284 734 
Q 3638 1028 3763 1606 
z
" transform="scale(0.015625)"/>
       <path id="ArialMT-6f" d="M 213 1659 
Q 213 2581 725 3025 
Q 1153 3394 1769 3394 
Q 2453 3394 2887 2945 
Q 3322 2497 3322 1706 
Q 3322 1066 3130 698 
Q 2938 331 2570 128 
Q 2203 -75 1769 -75 
Q 1072 -75 642 372 
Q 213 819 213 1659 
z
M 791 1659 
Q 791 1022 1069 705 
Q 1347 388 1769 388 
Q 2188 388 2466 706 
Q 2744 1025 2744 1678 
Q 2744 2294 2464 2611 
Q 2184 2928 1769 2928 
Q 1347 2928 1069 2612 
Q 791 2297 791 1659 
z
" transform="scale(0.015625)"/>
       <path id="ArialMT-6d" d="M 422 0 
L 422 3319 
L 925 3319 
L 925 2853 
Q 1081 3097 1340 3245 
Q 1600 3394 1931 3394 
Q 2300 3394 2536 3241 
Q 2772 3088 2869 2813 
Q 3263 3394 3894 3394 
Q 4388 3394 4653 3120 
Q 4919 2847 4919 2278 
L 4919 0 
L 4359 0 
L 4359 2091 
Q 4359 2428 4304 2576 
Q 4250 2725 4106 2815 
Q 3963 2906 3769 2906 
Q 3419 2906 3187 2673 
Q 2956 2441 2956 1928 
L 2956 0 
L 2394 0 
L 2394 2156 
Q 2394 2531 2256 2718 
Q 2119 2906 1806 2906 
Q 1569 2906 1367 2781 
Q 1166 2656 1075 2415 
Q 984 2175 984 1722 
L 984 0 
L 422 0 
z
" transform="scale(0.015625)"/>
       <path id="ArialMT-70" d="M 422 -1272 
L 422 3319 
L 934 3319 
L 934 2888 
Q 1116 3141 1344 3267 
Q 1572 3394 1897 3394 
Q 2322 3394 2647 3175 
Q 2972 2956 3137 2557 
Q 3303 2159 3303 1684 
Q 3303 1175 3120 767 
Q 2938 359 2589 142 
Q 2241 -75 1856 -75 
Q 1575 -75 1351 44 
Q 1128 163 984 344 
L 984 -1272 
L 422 -1272 
z
M 931 1641 
Q 931 1000 1190 694 
Q 1450 388 1819 388 
Q 2194 388 2461 705 
Q 2728 1022 2728 1688 
Q 2728 2322 2467 2637 
Q 2206 2953 1844 2953 
Q 1484 2953 1207 2617 
Q 931 2281 931 1641 
z
" transform="scale(0.015625)"/>
       <path id="ArialMT-65" d="M 2694 1069 
L 3275 997 
Q 3138 488 2766 206 
Q 2394 -75 1816 -75 
Q 1088 -75 661 373 
Q 234 822 234 1631 
Q 234 2469 665 2931 
Q 1097 3394 1784 3394 
Q 2450 3394 2872 2941 
Q 3294 2488 3294 1666 
Q 3294 1616 3291 1516 
L 816 1516 
Q 847 969 1125 678 
Q 1403 388 1819 388 
Q 2128 388 2347 550 
Q 2566 713 2694 1069 
z
M 847 1978 
L 2700 1978 
Q 2663 2397 2488 2606 
Q 2219 2931 1791 2931 
Q 1403 2931 1139 2672 
Q 875 2413 847 1978 
z
" transform="scale(0.015625)"/>
       <path id="ArialMT-74" d="M 1650 503 
L 1731 6 
Q 1494 -44 1306 -44 
Q 1000 -44 831 53 
Q 663 150 594 308 
Q 525 466 525 972 
L 525 2881 
L 113 2881 
L 113 3319 
L 525 3319 
L 525 4141 
L 1084 4478 
L 1084 3319 
L 1650 3319 
L 1650 2881 
L 1084 2881 
L 1084 941 
Q 1084 700 1114 631 
Q 1144 563 1211 522 
Q 1278 481 1403 481 
Q 1497 481 1650 503 
z
" transform="scale(0.015625)"/>
       <path id="ArialMT-69" d="M 425 3934 
L 425 4581 
L 988 4581 
L 988 3934 
L 425 3934 
z
M 425 0 
L 425 3319 
L 988 3319 
L 988 0 
L 425 0 
z
" transform="scale(0.015625)"/>
       <path id="ArialMT-76" d="M 1344 0 
L 81 3319 
L 675 3319 
L 1388 1331 
Q 1503 1009 1600 663 
Q 1675 925 1809 1294 
L 2547 3319 
L 3125 3319 
L 1869 0 
L 1344 0 
z
" transform="scale(0.015625)"/>
       <path id="ArialMT-6e" d="M 422 0 
L 422 3319 
L 928 3319 
L 928 2847 
Q 1294 3394 1984 3394 
Q 2284 3394 2536 3286 
Q 2788 3178 2913 3003 
Q 3038 2828 3088 2588 
Q 3119 2431 3119 2041 
L 3119 0 
L 2556 0 
L 2556 2019 
Q 2556 2363 2490 2533 
Q 2425 2703 2258 2804 
Q 2091 2906 1866 2906 
Q 1506 2906 1245 2678 
Q 984 2450 984 1813 
L 984 0 
L 422 0 
z
" transform="scale(0.015625)"/>
       <path id="ArialMT-73" d="M 197 991 
L 753 1078 
Q 800 744 1014 566 
Q 1228 388 1613 388 
Q 2000 388 2187 545 
Q 2375 703 2375 916 
Q 2375 1106 2209 1216 
Q 2094 1291 1634 1406 
Q 1016 1563 777 1677 
Q 538 1791 414 1992 
Q 291 2194 291 2438 
Q 291 2659 392 2848 
Q 494 3038 669 3163 
Q 800 3259 1026 3326 
Q 1253 3394 1513 3394 
Q 1903 3394 2198 3281 
Q 2494 3169 2634 2976 
Q 2775 2784 2828 2463 
L 2278 2388 
Q 2241 2644 2061 2787 
Q 1881 2931 1553 2931 
Q 1166 2931 1000 2803 
Q 834 2675 834 2503 
Q 834 2394 903 2306 
Q 972 2216 1119 2156 
Q 1203 2125 1616 2013 
Q 2213 1853 2448 1751 
Q 2684 1650 2818 1456 
Q 2953 1263 2953 975 
Q 2953 694 2789 445 
Q 2625 197 2315 61 
Q 2006 -75 1616 -75 
Q 969 -75 630 194 
Q 291 463 197 991 
z
" transform="scale(0.015625)"/>
       <path id="ArialMT-20" transform="scale(0.015625)"/>
       <path id="ArialMT-41" d="M -9 0 
L 1750 4581 
L 2403 4581 
L 4278 0 
L 3588 0 
L 3053 1388 
L 1138 1388 
L 634 0 
L -9 0 
z
M 1313 1881 
L 2866 1881 
L 2388 3150 
Q 2169 3728 2063 4100 
Q 1975 3659 1816 3225 
L 1313 1881 
z
" transform="scale(0.015625)"/>
       <path id="ArialMT-67" d="M 319 -275 
L 866 -356 
Q 900 -609 1056 -725 
Q 1266 -881 1628 -881 
Q 2019 -881 2231 -725 
Q 2444 -569 2519 -288 
Q 2563 -116 2559 434 
Q 2191 0 1641 0 
Q 956 0 581 494 
Q 206 988 206 1678 
Q 206 2153 378 2554 
Q 550 2956 876 3175 
Q 1203 3394 1644 3394 
Q 2231 3394 2613 2919 
L 2613 3319 
L 3131 3319 
L 3131 450 
Q 3131 -325 2973 -648 
Q 2816 -972 2473 -1159 
Q 2131 -1347 1631 -1347 
Q 1038 -1347 672 -1080 
Q 306 -813 319 -275 
z
M 784 1719 
Q 784 1066 1043 766 
Q 1303 466 1694 466 
Q 2081 466 2343 764 
Q 2606 1063 2606 1700 
Q 2606 2309 2336 2618 
Q 2066 2928 1684 2928 
Q 1309 2928 1046 2623 
Q 784 2319 784 1719 
z
" transform="scale(0.015625)"/>
       <path id="ArialMT-61" d="M 2588 409 
Q 2275 144 1986 34 
Q 1697 -75 1366 -75 
Q 819 -75 525 192 
Q 231 459 231 875 
Q 231 1119 342 1320 
Q 453 1522 633 1644 
Q 813 1766 1038 1828 
Q 1203 1872 1538 1913 
Q 2219 1994 2541 2106 
Q 2544 2222 2544 2253 
Q 2544 2597 2384 2738 
Q 2169 2928 1744 2928 
Q 1347 2928 1158 2789 
Q 969 2650 878 2297 
L 328 2372 
Q 403 2725 575 2942 
Q 747 3159 1072 3276 
Q 1397 3394 1825 3394 
Q 2250 3394 2515 3294 
Q 2781 3194 2906 3042 
Q 3031 2891 3081 2659 
Q 3109 2516 3109 2141 
L 3109 1391 
Q 3109 606 3145 398 
Q 3181 191 3288 0 
L 2700 0 
Q 2613 175 2588 409 
z
M 2541 1666 
Q 2234 1541 1622 1453 
Q 1275 1403 1131 1340 
Q 988 1278 909 1158 
Q 831 1038 831 891 
Q 831 666 1001 516 
Q 1172 366 1500 366 
Q 1825 366 2078 508 
Q 2331 650 2450 897 
Q 2541 1088 2541 1459 
L 2541 1666 
z
" transform="scale(0.015625)"/>
       <path id="ArialMT-4e" d="M 488 0 
L 488 4581 
L 1109 4581 
L 3516 984 
L 3516 4581 
L 4097 4581 
L 4097 0 
L 3475 0 
L 1069 3600 
L 1069 0 
L 488 0 
z
" transform="scale(0.015625)"/>
       <path id="ArialMT-6c" d="M 409 0 
L 409 4581 
L 972 4581 
L 972 0 
L 409 0 
z
" transform="scale(0.015625)"/>
       <path id="ArialMT-50" d="M 494 0 
L 494 4581 
L 2222 4581 
Q 2678 4581 2919 4538 
Q 3256 4481 3484 4323 
Q 3713 4166 3852 3881 
Q 3991 3597 3991 3256 
Q 3991 2672 3619 2267 
Q 3247 1863 2275 1863 
L 1100 1863 
L 1100 0 
L 494 0 
z
M 1100 2403 
L 2284 2403 
Q 2872 2403 3119 2622 
Q 3366 2841 3366 3238 
Q 3366 3525 3220 3729 
Q 3075 3934 2838 4000 
Q 2684 4041 2272 4041 
L 1100 4041 
L 1100 2403 
z
" transform="scale(0.015625)"/>
       <path id="ArialMT-72" d="M 416 0 
L 416 3319 
L 922 3319 
L 922 2816 
Q 1116 3169 1280 3281 
Q 1444 3394 1641 3394 
Q 1925 3394 2219 3213 
L 2025 2691 
Q 1819 2813 1613 2813 
Q 1428 2813 1281 2702 
Q 1134 2591 1072 2394 
Q 978 2094 978 1738 
L 978 0 
L 416 0 
z
" transform="scale(0.015625)"/>
       <path id="ArialMT-66" d="M 556 0 
L 556 2881 
L 59 2881 
L 59 3319 
L 556 3319 
L 556 3672 
Q 556 4006 616 4169 
Q 697 4388 901 4523 
Q 1106 4659 1475 4659 
Q 1713 4659 2000 4603 
L 1916 4113 
Q 1741 4144 1584 4144 
Q 1328 4144 1222 4034 
Q 1116 3925 1116 3625 
L 1116 3319 
L 1763 3319 
L 1763 2881 
L 1116 2881 
L 1116 0 
L 556 0 
z
" transform="scale(0.015625)"/>
       <path id="ArialMT-52" d="M 503 0 
L 503 4581 
L 2534 4581 
Q 3147 4581 3465 4457 
Q 3784 4334 3975 4021 
Q 4166 3709 4166 3331 
Q 4166 2844 3850 2509 
Q 3534 2175 2875 2084 
Q 3116 1969 3241 1856 
Q 3506 1613 3744 1247 
L 4541 0 
L 3778 0 
L 3172 953 
Q 2906 1366 2734 1584 
Q 2563 1803 2427 1890 
Q 2291 1978 2150 2013 
Q 2047 2034 1813 2034 
L 1109 2034 
L 1109 0 
L 503 0 
z
M 1109 2559 
L 2413 2559 
Q 2828 2559 3062 2645 
Q 3297 2731 3419 2920 
Q 3541 3109 3541 3331 
Q 3541 3656 3305 3865 
Q 3069 4075 2559 4075 
L 1109 4075 
L 1109 2559 
z
" transform="scale(0.015625)"/>
       <path id="ArialMT-45" d="M 506 0 
L 506 4581 
L 3819 4581 
L 3819 4041 
L 1113 4041 
L 1113 2638 
L 3647 2638 
L 3647 2100 
L 1113 2100 
L 1113 541 
L 3925 541 
L 3925 0 
L 506 0 
z
" transform="scale(0.015625)"/>
       <path id="ArialMT-49" d="M 597 0 
L 597 4581 
L 1203 4581 
L 1203 0 
L 597 0 
z
" transform="scale(0.015625)"/>
       <path id="ArialMT-54" d="M 1659 0 
L 1659 4041 
L 150 4041 
L 150 4581 
L 3781 4581 
L 3781 4041 
L 2266 4041 
L 2266 0 
L 1659 0 
z
" transform="scale(0.015625)"/>
      </defs>
      <use xlink:href="#ArialMT-43"/>
      <use xlink:href="#ArialMT-6f" x="72.216797"/>
      <use xlink:href="#ArialMT-6d" x="127.832031"/>
      <use xlink:href="#ArialMT-70" x="211.132812"/>
      <use xlink:href="#ArialMT-65" x="266.748047"/>
      <use xlink:href="#ArialMT-74" x="322.363281"/>
      <use xlink:href="#ArialMT-69" x="350.146484"/>
      <use xlink:href="#ArialMT-74" x="372.363281"/>
      <use xlink:href="#ArialMT-69" x="400.146484"/>
      <use xlink:href="#ArialMT-76" x="422.363281"/>
      <use xlink:href="#ArialMT-65" x="472.363281"/>
      <use xlink:href="#ArialMT-6e" x="527.978516"/>
      <use xlink:href="#ArialMT-65" x="583.59375"/>
      <use xlink:href="#ArialMT-73" x="639.208984"/>
      <use xlink:href="#ArialMT-73" x="689.208984"/>
      <use xlink:href="#ArialMT-20" x="739.208984"/>
      <use xlink:href="#ArialMT-41" x="761.492188"/>
      <use xlink:href="#ArialMT-6d" x="828.191406"/>
      <use xlink:href="#ArialMT-6f" x="911.492188"/>
      <use xlink:href="#ArialMT-6e" x="967.107422"/>
      <use xlink:href="#ArialMT-67" x="1022.722656"/>
      <use xlink:href="#ArialMT-20" x="1078.337891"/>
      <use xlink:href="#ArialMT-61" x="1106.121094"/>
      <use xlink:href="#ArialMT-20" x="1161.736328"/>
      <use xlink:href="#ArialMT-4e" x="1189.519531"/>
      <use xlink:href="#ArialMT-61" x="1261.736328"/>
      <use xlink:href="#ArialMT-74" x="1317.351562"/>
      <use xlink:href="#ArialMT-69" x="1345.134766"/>
      <use xlink:href="#ArialMT-6f" x="1367.351562"/>
      <use xlink:href="#ArialMT-6e" x="1422.966797"/>
      <use xlink:href="#ArialMT-61" x="1478.582031"/>
      <use xlink:href="#ArialMT-6c" x="1534.197266"/>
      <use xlink:href="#ArialMT-20" x="1556.414062"/>
      <use xlink:href="#ArialMT-50" x="1584.197266"/>
      <use xlink:href="#ArialMT-6f" x="1650.896484"/>
      <use xlink:href="#ArialMT-72" x="1706.511719"/>
      <use xlink:href="#ArialMT-66" x="1739.8125"/>
      <use xlink:href="#ArialMT-6f" x="1767.595703"/>
      <use xlink:href="#ArialMT-6c" x="1823.210938"/>
      <use xlink:href="#ArialMT-69" x="1845.427734"/>
      <use xlink:href="#ArialMT-6f" x="1867.644531"/>
      <use xlink:href="#ArialMT-20" x="1923.259766"/>
      <use xlink:href="#ArialMT-6f" x="1951.042969"/>
      <use xlink:href="#ArialMT-66" x="2006.658203"/>
      <use xlink:href="#ArialMT-20" x="2034.441406"/>
      <use xlink:href="#ArialMT-52" x="2062.224609"/>
      <use xlink:href="#ArialMT-65" x="2134.441406"/>
      <use xlink:href="#ArialMT-74" x="2190.056641"/>
      <use xlink:href="#ArialMT-61" x="2217.839844"/>
      <use xlink:href="#ArialMT-69" x="2273.455078"/>
      <use xlink:href="#ArialMT-6c" x="2295.671875"/>
      <use xlink:href="#ArialMT-20" x="2317.888672"/>
      <use xlink:href="#ArialMT-52" x="2345.671875"/>
      <use xlink:href="#ArialMT-45" x="2417.888672"/>
      <use xlink:href="#ArialMT-49" x="2484.587891"/>
      <use xlink:href="#ArialMT-54" x="2512.371094"/>
      <use xlink:href="#ArialMT-20" x="2571.705078"/>
      <use xlink:href="#ArialMT-50" x="2599.488281"/>
      <use xlink:href="#ArialMT-72" x="2666.1875"/>
      <use xlink:href="#ArialMT-6f" x="2699.488281"/>
      <use xlink:href="#ArialMT-70" x="2755.103516"/>
      <use xlink:href="#ArialMT-65" x="2810.71875"/>
      <use xlink:href="#ArialMT-72" x="2866.333984"/>
      <use xlink:href="#ArialMT-74" x="2899.634766"/>
      <use xlink:href="#ArialMT-69" x="2927.417969"/>
      <use xlink:href="#ArialMT-65" x="2949.634766"/>
      <use xlink:href="#ArialMT-73" x="3005.25"/>
     </g>
    </g>
   </g>
   <g id="matplotlib.axis_2">
    <g id="ytick_1">
     <g id="line2d_10"/>
     <g id="text_11">
      <!-- 0 -->
      <g style="fill: #262626" transform="translate(7.2 310.896724) scale(0.1 -0.1)">
       <use xlink:href="#ArialMT-30"/>
      </g>
     </g>
    </g>
    <g id="ytick_2">
     <g id="line2d_11"/>
     <g id="text_12">
      <!-- 1 -->
      <g style="fill: #262626" transform="translate(7.2 252.339759) scale(0.1 -0.1)">
       <use xlink:href="#ArialMT-31"/>
      </g>
     </g>
    </g>
    <g id="ytick_3">
     <g id="line2d_12"/>
     <g id="text_13">
      <!-- 2 -->
      <g style="fill: #262626" transform="translate(7.2 193.782794) scale(0.1 -0.1)">
       <use xlink:href="#ArialMT-32"/>
      </g>
     </g>
    </g>
    <g id="ytick_4">
     <g id="line2d_13"/>
     <g id="text_14">
      <!-- 3 -->
      <g style="fill: #262626" transform="translate(7.2 135.225828) scale(0.1 -0.1)">
       <use xlink:href="#ArialMT-33"/>
      </g>
     </g>
    </g>
    <g id="ytick_5">
     <g id="line2d_14"/>
     <g id="text_15">
      <!-- 4 -->
      <g style="fill: #262626" transform="translate(7.2 76.668863) scale(0.1 -0.1)">
       <use xlink:href="#ArialMT-34"/>
      </g>
     </g>
    </g>
   </g>
   <g id="PolyCollection_1">
    <defs>
     <path id="m79f38ef048" d="M 47.666392 -77.033401 
L 47.666392 -107.821521 
L 49.767091 -111.683889 
L 51.867791 -115.888835 
L 53.96849 -120.444875 
L 56.069189 -125.3574 
L 58.169889 -130.628263 
L 60.270588 -136.255384 
L 62.371287 -142.232414 
L 64.471986 -148.548459 
L 66.572686 -155.187869 
L 68.673385 -162.130121 
L 70.774084 -169.349806 
L 72.874784 -176.816712 
L 74.975483 -184.496031 
L 77.076182 -192.348679 
L 79.176882 -200.331734 
L 81.277581 -208.398984 
L 83.37828 -216.501584 
L 85.478979 -224.588799 
L 87.579679 -232.608824 
L 89.680378 -240.509654 
L 91.781077 -248.239988 
L 93.881777 -255.750137 
L 95.982476 -262.992913 
L 98.083175 -269.924461 
L 100.183875 -276.505024 
L 102.284574 -282.699609 
L 104.385273 -288.478527 
L 106.485972 -293.817805 
L 108.586672 -298.699438 
L 110.687371 -303.111498 
L 112.78807 -307.04808 
L 114.88877 -310.509095 
L 116.989469 -313.49993 
L 119.090168 -316.030977 
L 121.190868 -318.117064 
L 123.291567 -319.776803 
L 125.392266 -321.031888 
L 127.492965 -321.906359 
L 129.593665 -322.425882 
L 131.694364 -322.617037 
L 133.795063 -322.506671 
L 135.895763 -322.121311 
L 137.996462 -321.486665 
L 140.097161 -320.627214 
L 142.197861 -319.565903 
L 144.29856 -318.323936 
L 146.399259 -316.920656 
L 148.499958 -315.373517 
L 150.600658 -313.698131 
L 152.701357 -311.908365 
L 154.802056 -310.016493 
L 156.902756 -308.033362 
L 159.003455 -305.96858 
L 161.104154 -303.830697 
L 163.204854 -301.62737 
L 165.305553 -299.365503 
L 167.406252 -297.051362 
L 169.506951 -294.690652 
L 171.607651 -292.288563 
L 173.70835 -289.849782 
L 175.809049 -287.378485 
L 177.909749 -284.87831 
L 180.010448 -282.352311 
L 182.111147 -279.802922 
L 184.211847 -277.231917 
L 186.312546 -274.64039 
L 188.413245 -272.028753 
L 190.513944 -269.396748 
L 192.614644 -266.743504 
L 194.715343 -264.067599 
L 196.816042 -261.367161 
L 198.916742 -258.639988 
L 201.017441 -255.883676 
L 203.11814 -253.09577 
L 205.21884 -250.273909 
L 207.319539 -247.415974 
L 209.420238 -244.520227 
L 211.520938 -241.585432 
L 213.621637 -238.610957 
L 215.722336 -235.596859 
L 217.823035 -232.543932 
L 219.923735 -229.453743 
L 222.024434 -226.328626 
L 224.125133 -223.171665 
L 226.225833 -219.986649 
L 228.326532 -216.778013 
L 230.427231 -213.550757 
L 232.527931 -210.310365 
L 234.62863 -207.062713 
L 236.729329 -203.813978 
L 238.830028 -200.570547 
L 240.930728 -197.338932 
L 243.031427 -194.125691 
L 245.132126 -190.937362 
L 247.232826 -187.780397 
L 249.333525 -184.661111 
L 251.434224 -181.58564 
L 253.534924 -178.559899 
L 255.635623 -175.589553 
L 257.736322 -172.679986 
L 259.837021 -169.836276 
L 261.937721 -167.063172 
L 264.03842 -164.365066 
L 266.139119 -161.74597 
L 268.239819 -159.209495 
L 270.340518 -156.758822 
L 272.441217 -154.396683 
L 274.541917 -152.125338 
L 276.642616 -149.94656 
L 278.743315 -147.861621 
L 280.844014 -145.871284 
L 282.944714 -143.975807 
L 285.045413 -142.174945 
L 287.146112 -140.467971 
L 289.246812 -138.853695 
L 291.347511 -137.330497 
L 293.44821 -135.89636 
L 295.54891 -134.548918 
L 297.649609 -133.285493 
L 299.750308 -132.103147 
L 301.851007 -130.998727 
L 303.951707 -129.968911 
L 306.052406 -129.010242 
L 308.153105 -128.119174 
L 310.253805 -127.292092 
L 312.354504 -126.52534 
L 314.455203 -125.815235 
L 316.555903 -125.158076 
L 318.656602 -124.550143 
L 320.757301 -123.9877 
L 322.858 -123.466981 
L 324.9587 -122.984185 
L 327.059399 -122.535459 
L 329.160098 -122.116893 
L 331.260798 -121.724504 
L 333.361497 -121.354238 
L 335.462196 -121.001965 
L 337.562896 -120.663486 
L 339.663595 -120.334547 
L 341.764294 -120.010856 
L 343.864993 -119.688116 
L 345.965693 -119.362056 
L 348.066392 -119.028473 
L 350.167091 -118.683282 
L 352.267791 -118.322562 
L 354.36849 -117.942614 
L 356.469189 -117.540016 
L 358.569889 -117.111673 
L 360.670588 -116.654869 
L 362.771287 -116.167314 
L 364.871986 -115.64718 
L 366.972686 -115.093133 
L 369.073385 -114.504354 
L 371.174084 -113.88055 
L 373.274784 -113.221953 
L 375.375483 -112.529313 
L 377.476182 -111.803873 
L 379.576882 -111.047341 
L 381.677581 -110.261854 
L 383.77828 -109.449931 
L 385.878979 -108.614419 
L 387.979679 -107.758446 
L 390.080378 -106.88536 
L 392.181077 -105.998676 
L 394.281777 -105.102017 
L 396.382476 -104.199065 
L 398.483175 -103.293512 
L 400.583875 -102.389013 
L 402.684574 -101.48915 
L 404.785273 -100.597392 
L 406.885972 -99.717072 
L 408.986672 -98.851358 
L 411.087371 -98.003237 
L 413.18807 -97.175495 
L 415.28877 -96.370713 
L 417.389469 -95.59125 
L 419.490168 -94.839245 
L 421.590868 -94.116613 
L 423.691567 -93.425043 
L 425.792266 -92.766 
L 427.892965 -92.140728 
L 429.993665 -91.550253 
L 432.094364 -90.995386 
L 434.195063 -90.476729 
L 436.295763 -89.994677 
L 438.396462 -89.549423 
L 440.497161 -89.140957 
L 442.597861 -88.769072 
L 444.69856 -88.433357 
L 446.799259 -88.133201 
L 448.899958 -87.867786 
L 451.000658 -87.636081 
L 453.101357 -87.436839 
L 455.202056 -87.268586 
L 457.302756 -87.129619 
L 459.403455 -87.018001 
L 461.504154 -86.931556 
L 463.604854 -86.867871 
L 465.705553 -86.824306 
L 467.806252 -86.798002 
L 469.906951 -86.785905 
L 472.007651 -86.784786 
L 474.10835 -86.791284 
L 476.209049 -86.801942 
L 478.309749 -86.813259 
L 480.410448 -86.821748 
L 482.511147 -86.823993 
L 484.611847 -86.816716 
L 486.712546 -86.796839 
L 488.813245 -86.76155 
L 490.913944 -86.708361 
L 493.014644 -86.635161 
L 495.115343 -86.540263 
L 497.216042 -86.422434 
L 499.316742 -86.280921 
L 501.417441 -86.115461 
L 503.51814 -85.926275 
L 505.61884 -85.71405 
L 507.719539 -85.479915 
L 509.820238 -85.225393 
L 511.920938 -84.952357 
L 514.021637 -84.662968 
L 516.122336 -84.359614 
L 518.223035 -84.044845 
L 520.323735 -83.721306 
L 522.424434 -83.391676 
L 524.525133 -83.058606 
L 526.625833 -82.724671 
L 528.726532 -82.392319 
L 530.827231 -82.063842 
L 532.927931 -81.74134 
L 535.02863 -81.426707 
L 537.129329 -81.121623 
L 539.230028 -80.827547 
L 541.330728 -80.545726 
L 543.431427 -80.277202 
L 545.532126 -80.02283 
L 547.632826 -79.783298 
L 549.733525 -79.55914 
L 551.834224 -79.350763 
L 553.934924 -79.158464 
L 556.035623 -78.982448 
L 558.136322 -78.822844 
L 560.237021 -78.679716 
L 562.337721 -78.553078 
L 564.43842 -78.442892 
L 566.539119 -78.349078 
L 568.639819 -78.271508 
L 570.740518 -78.210008 
L 572.841217 -78.164346 
L 574.941917 -78.134228 
L 577.042616 -78.119289 
L 579.143315 -78.119082 
L 581.244014 -78.133067 
L 583.344714 -78.160606 
L 585.445413 -78.20095 
L 587.546112 -78.253238 
L 589.646812 -78.316492 
L 591.747511 -78.389615 
L 593.84821 -78.4714 
L 595.94891 -78.560535 
L 598.049609 -78.655614 
L 600.150308 -78.755154 
L 602.251007 -78.857617 
L 604.351707 -78.961429 
L 606.452406 -79.06501 
L 608.553105 -79.166801 
L 610.653805 -79.265295 
L 612.754504 -79.359064 
L 614.855203 -79.446792 
L 616.955903 -79.5273 
L 619.056602 -79.59957 
L 621.157301 -79.662765 
L 623.258 -79.716243 
L 625.3587 -79.759571 
L 627.459399 -79.79252 
L 629.560098 -79.815067 
L 631.660798 -79.827383 
L 633.761497 -79.829818 
L 635.862196 -79.822878 
L 637.962896 -79.807199 
L 640.063595 -79.783522 
L 642.164294 -79.752656 
L 644.264993 -79.715448 
L 646.365693 -79.672754 
L 648.466392 -79.625406 
L 650.567091 -79.574187 
L 652.667791 -79.519809 
L 654.76849 -79.462897 
L 656.869189 -79.403976 
L 658.969889 -79.343463 
L 661.070588 -79.281672 
L 663.171287 -79.218816 
L 665.271986 -79.155017 
L 667.372686 -79.09032 
L 669.473385 -79.02471 
L 671.574084 -78.958133 
L 673.674784 -78.890512 
L 675.775483 -78.821768 
L 675.775483 -77.033401 
L 675.775483 -77.033401 
L 673.674784 -77.033401 
L 671.574084 -77.033401 
L 669.473385 -77.033401 
L 667.372686 -77.033401 
L 665.271986 -77.033401 
L 663.171287 -77.033401 
L 661.070588 -77.033401 
L 658.969889 -77.033401 
L 656.869189 -77.033401 
L 654.76849 -77.033401 
L 652.667791 -77.033401 
L 650.567091 -77.033401 
L 648.466392 -77.033401 
L 646.365693 -77.033401 
L 644.264993 -77.033401 
L 642.164294 -77.033401 
L 640.063595 -77.033401 
L 637.962896 -77.033401 
L 635.862196 -77.033401 
L 633.761497 -77.033401 
L 631.660798 -77.033401 
L 629.560098 -77.033401 
L 627.459399 -77.033401 
L 625.3587 -77.033401 
L 623.258 -77.033401 
L 621.157301 -77.033401 
L 619.056602 -77.033401 
L 616.955903 -77.033401 
L 614.855203 -77.033401 
L 612.754504 -77.033401 
L 610.653805 -77.033401 
L 608.553105 -77.033401 
L 606.452406 -77.033401 
L 604.351707 -77.033401 
L 602.251007 -77.033401 
L 600.150308 -77.033401 
L 598.049609 -77.033401 
L 595.94891 -77.033401 
L 593.84821 -77.033401 
L 591.747511 -77.033401 
L 589.646812 -77.033401 
L 587.546112 -77.033401 
L 585.445413 -77.033401 
L 583.344714 -77.033401 
L 581.244014 -77.033401 
L 579.143315 -77.033401 
L 577.042616 -77.033401 
L 574.941917 -77.033401 
L 572.841217 -77.033401 
L 570.740518 -77.033401 
L 568.639819 -77.033401 
L 566.539119 -77.033401 
L 564.43842 -77.033401 
L 562.337721 -77.033401 
L 560.237021 -77.033401 
L 558.136322 -77.033401 
L 556.035623 -77.033401 
L 553.934924 -77.033401 
L 551.834224 -77.033401 
L 549.733525 -77.033401 
L 547.632826 -77.033401 
L 545.532126 -77.033401 
L 543.431427 -77.033401 
L 541.330728 -77.033401 
L 539.230028 -77.033401 
L 537.129329 -77.033401 
L 535.02863 -77.033401 
L 532.927931 -77.033401 
L 530.827231 -77.033401 
L 528.726532 -77.033401 
L 526.625833 -77.033401 
L 524.525133 -77.033401 
L 522.424434 -77.033401 
L 520.323735 -77.033401 
L 518.223035 -77.033401 
L 516.122336 -77.033401 
L 514.021637 -77.033401 
L 511.920938 -77.033401 
L 509.820238 -77.033401 
L 507.719539 -77.033401 
L 505.61884 -77.033401 
L 503.51814 -77.033401 
L 501.417441 -77.033401 
L 499.316742 -77.033401 
L 497.216042 -77.033401 
L 495.115343 -77.033401 
L 493.014644 -77.033401 
L 490.913944 -77.033401 
L 488.813245 -77.033401 
L 486.712546 -77.033401 
L 484.611847 -77.033401 
L 482.511147 -77.033401 
L 480.410448 -77.033401 
L 478.309749 -77.033401 
L 476.209049 -77.033401 
L 474.10835 -77.033401 
L 472.007651 -77.033401 
L 469.906951 -77.033401 
L 467.806252 -77.033401 
L 465.705553 -77.033401 
L 463.604854 -77.033401 
L 461.504154 -77.033401 
L 459.403455 -77.033401 
L 457.302756 -77.033401 
L 455.202056 -77.033401 
L 453.101357 -77.033401 
L 451.000658 -77.033401 
L 448.899958 -77.033401 
L 446.799259 -77.033401 
L 444.69856 -77.033401 
L 442.597861 -77.033401 
L 440.497161 -77.033401 
L 438.396462 -77.033401 
L 436.295763 -77.033401 
L 434.195063 -77.033401 
L 432.094364 -77.033401 
L 429.993665 -77.033401 
L 427.892965 -77.033401 
L 425.792266 -77.033401 
L 423.691567 -77.033401 
L 421.590868 -77.033401 
L 419.490168 -77.033401 
L 417.389469 -77.033401 
L 415.28877 -77.033401 
L 413.18807 -77.033401 
L 411.087371 -77.033401 
L 408.986672 -77.033401 
L 406.885972 -77.033401 
L 404.785273 -77.033401 
L 402.684574 -77.033401 
L 400.583875 -77.033401 
L 398.483175 -77.033401 
L 396.382476 -77.033401 
L 394.281777 -77.033401 
L 392.181077 -77.033401 
L 390.080378 -77.033401 
L 387.979679 -77.033401 
L 385.878979 -77.033401 
L 383.77828 -77.033401 
L 381.677581 -77.033401 
L 379.576882 -77.033401 
L 377.476182 -77.033401 
L 375.375483 -77.033401 
L 373.274784 -77.033401 
L 371.174084 -77.033401 
L 369.073385 -77.033401 
L 366.972686 -77.033401 
L 364.871986 -77.033401 
L 362.771287 -77.033401 
L 360.670588 -77.033401 
L 358.569889 -77.033401 
L 356.469189 -77.033401 
L 354.36849 -77.033401 
L 352.267791 -77.033401 
L 350.167091 -77.033401 
L 348.066392 -77.033401 
L 345.965693 -77.033401 
L 343.864993 -77.033401 
L 341.764294 -77.033401 
L 339.663595 -77.033401 
L 337.562896 -77.033401 
L 335.462196 -77.033401 
L 333.361497 -77.033401 
L 331.260798 -77.033401 
L 329.160098 -77.033401 
L 327.059399 -77.033401 
L 324.9587 -77.033401 
L 322.858 -77.033401 
L 320.757301 -77.033401 
L 318.656602 -77.033401 
L 316.555903 -77.033401 
L 314.455203 -77.033401 
L 312.354504 -77.033401 
L 310.253805 -77.033401 
L 308.153105 -77.033401 
L 306.052406 -77.033401 
L 303.951707 -77.033401 
L 301.851007 -77.033401 
L 299.750308 -77.033401 
L 297.649609 -77.033401 
L 295.54891 -77.033401 
L 293.44821 -77.033401 
L 291.347511 -77.033401 
L 289.246812 -77.033401 
L 287.146112 -77.033401 
L 285.045413 -77.033401 
L 282.944714 -77.033401 
L 280.844014 -77.033401 
L 278.743315 -77.033401 
L 276.642616 -77.033401 
L 274.541917 -77.033401 
L 272.441217 -77.033401 
L 270.340518 -77.033401 
L 268.239819 -77.033401 
L 266.139119 -77.033401 
L 264.03842 -77.033401 
L 261.937721 -77.033401 
L 259.837021 -77.033401 
L 257.736322 -77.033401 
L 255.635623 -77.033401 
L 253.534924 -77.033401 
L 251.434224 -77.033401 
L 249.333525 -77.033401 
L 247.232826 -77.033401 
L 245.132126 -77.033401 
L 243.031427 -77.033401 
L 240.930728 -77.033401 
L 238.830028 -77.033401 
L 236.729329 -77.033401 
L 234.62863 -77.033401 
L 232.527931 -77.033401 
L 230.427231 -77.033401 
L 228.326532 -77.033401 
L 226.225833 -77.033401 
L 224.125133 -77.033401 
L 222.024434 -77.033401 
L 219.923735 -77.033401 
L 217.823035 -77.033401 
L 215.722336 -77.033401 
L 213.621637 -77.033401 
L 211.520938 -77.033401 
L 209.420238 -77.033401 
L 207.319539 -77.033401 
L 205.21884 -77.033401 
L 203.11814 -77.033401 
L 201.017441 -77.033401 
L 198.916742 -77.033401 
L 196.816042 -77.033401 
L 194.715343 -77.033401 
L 192.614644 -77.033401 
L 190.513944 -77.033401 
L 188.413245 -77.033401 
L 186.312546 -77.033401 
L 184.211847 -77.033401 
L 182.111147 -77.033401 
L 180.010448 -77.033401 
L 177.909749 -77.033401 
L 175.809049 -77.033401 
L 173.70835 -77.033401 
L 171.607651 -77.033401 
L 169.506951 -77.033401 
L 167.406252 -77.033401 
L 165.305553 -77.033401 
L 163.204854 -77.033401 
L 161.104154 -77.033401 
L 159.003455 -77.033401 
L 156.902756 -77.033401 
L 154.802056 -77.033401 
L 152.701357 -77.033401 
L 150.600658 -77.033401 
L 148.499958 -77.033401 
L 146.399259 -77.033401 
L 144.29856 -77.033401 
L 142.197861 -77.033401 
L 140.097161 -77.033401 
L 137.996462 -77.033401 
L 135.895763 -77.033401 
L 133.795063 -77.033401 
L 131.694364 -77.033401 
L 129.593665 -77.033401 
L 127.492965 -77.033401 
L 125.392266 -77.033401 
L 123.291567 -77.033401 
L 121.190868 -77.033401 
L 119.090168 -77.033401 
L 116.989469 -77.033401 
L 114.88877 -77.033401 
L 112.78807 -77.033401 
L 110.687371 -77.033401 
L 108.586672 -77.033401 
L 106.485972 -77.033401 
L 104.385273 -77.033401 
L 102.284574 -77.033401 
L 100.183875 -77.033401 
L 98.083175 -77.033401 
L 95.982476 -77.033401 
L 93.881777 -77.033401 
L 91.781077 -77.033401 
L 89.680378 -77.033401 
L 87.579679 -77.033401 
L 85.478979 -77.033401 
L 83.37828 -77.033401 
L 81.277581 -77.033401 
L 79.176882 -77.033401 
L 77.076182 -77.033401 
L 74.975483 -77.033401 
L 72.874784 -77.033401 
L 70.774084 -77.033401 
L 68.673385 -77.033401 
L 66.572686 -77.033401 
L 64.471986 -77.033401 
L 62.371287 -77.033401 
L 60.270588 -77.033401 
L 58.169889 -77.033401 
L 56.069189 -77.033401 
L 53.96849 -77.033401 
L 51.867791 -77.033401 
L 49.767091 -77.033401 
L 47.666392 -77.033401 
z
" style="stroke: #ffd700"/>
    </defs>
    <g clip-path="url(#pc020a0d82f)">
     <use xlink:href="#m79f38ef048" x="0" y="384.351219" style="fill: #ffd700; stroke: #ffd700"/>
    </g>
   </g>
   <g id="line2d_15">
    <path d="M 47.666392 276.529697 
L 49.767091 272.66733 
L 51.867791 268.462384 
L 53.96849 263.906344 
L 56.069189 258.993818 
L 58.169889 253.722956 
L 60.270588 248.095835 
L 62.371287 242.118804 
L 66.572686 229.16335 
L 70.774084 215.001413 
L 74.975483 199.855188 
L 81.277581 175.952235 
L 89.680378 143.841565 
L 93.881777 128.601081 
L 98.083175 114.426758 
L 100.183875 107.846195 
L 102.284574 101.65161 
L 104.385273 95.872691 
L 106.485972 90.533414 
L 108.586672 85.651781 
L 110.687371 81.239721 
L 112.78807 77.303139 
L 114.88877 73.842124 
L 116.989469 70.851289 
L 119.090168 68.320242 
L 121.190868 66.234155 
L 123.291567 64.574415 
L 125.392266 63.319331 
L 127.492965 62.444859 
L 129.593665 61.925337 
L 131.694364 61.734182 
L 133.795063 61.844548 
L 135.895763 62.229908 
L 137.996462 62.864554 
L 140.097161 63.724005 
L 142.197861 64.785315 
L 144.29856 66.027283 
L 146.399259 67.430563 
L 150.600658 70.653088 
L 154.802056 74.334726 
L 159.003455 78.382639 
L 163.204854 82.723849 
L 169.506951 89.660566 
L 175.809049 96.972733 
L 184.211847 107.119302 
L 192.614644 117.607715 
L 201.017441 128.467543 
L 207.319539 136.935244 
L 213.621637 145.740262 
L 219.923735 154.897476 
L 228.326532 167.573205 
L 249.333525 199.690107 
L 255.635623 208.761666 
L 259.837021 214.514942 
L 264.03842 219.986153 
L 268.239819 225.141724 
L 272.441217 229.954536 
L 276.642616 234.404659 
L 280.844014 238.479935 
L 285.045413 242.176274 
L 289.246812 245.497524 
L 293.44821 248.454858 
L 297.649609 251.065726 
L 301.851007 253.352491 
L 306.052406 255.340976 
L 310.253805 257.059127 
L 314.455203 258.535983 
L 318.656602 259.801076 
L 322.858 260.884238 
L 329.160098 262.234326 
L 335.462196 263.349253 
L 356.469189 266.811203 
L 362.771287 268.183905 
L 369.073385 269.846865 
L 375.375483 271.821906 
L 381.677581 274.089364 
L 387.979679 276.592773 
L 398.483175 281.057707 
L 408.986672 285.499861 
L 415.28877 287.980506 
L 421.590868 290.234606 
L 427.892965 292.21049 
L 434.195063 293.87449 
L 440.497161 295.210261 
L 446.799259 296.218017 
L 453.101357 296.91438 
L 459.403455 297.333218 
L 465.705553 297.526913 
L 476.209049 297.549277 
L 488.813245 297.589669 
L 495.115343 297.810956 
L 501.417441 298.235757 
L 507.719539 298.871304 
L 516.122336 299.991605 
L 545.532126 304.328388 
L 553.934924 305.192754 
L 562.337721 305.798141 
L 570.740518 306.141211 
L 579.143315 306.232137 
L 587.546112 306.09798 
L 598.049609 305.695605 
L 621.157301 304.688454 
L 631.660798 304.523835 
L 642.164294 304.598563 
L 656.869189 304.947243 
L 675.775483 305.52945 
L 675.775483 305.52945 
" clip-path="url(#pc020a0d82f)" style="fill: none; stroke: #ffd700; stroke-width: 1.5; stroke-linecap: round"/>
   </g>
   <g id="line2d_16">
    <path d="M 115.627425 319.597 
L 115.627425 49.455 
" clip-path="url(#pc020a0d82f)" style="fill: none; stroke-dasharray: 7.4,3.2; stroke-dashoffset: 0; stroke: #ffffff; stroke-width: 2"/>
   </g>
   <g id="patch_3">
    <path d="M 16.260938 319.597 
L 16.260938 49.455 
" style="fill: none"/>
   </g>
   <g id="patch_4">
    <path d="M 707.180938 319.597 
L 707.180938 49.455 
" style="fill: none"/>
   </g>
   <g id="patch_5">
    <path d="M 16.260938 319.597 
L 707.180938 319.597 
" style="fill: none"/>
   </g>
   <g id="patch_6">
    <path d="M 16.260938 49.455 
L 707.180938 49.455 
" style="fill: none"/>
   </g>
   <g id="text_16">
    <!-- This Property's Competitiveness  -->
    <g style="fill: #262626" transform="translate(215.87875 21.759375) scale(0.2 -0.2)">
     <defs>
      <path id="ArialMT-68" d="M 422 0 
L 422 4581 
L 984 4581 
L 984 2938 
Q 1378 3394 1978 3394 
Q 2347 3394 2619 3248 
Q 2891 3103 3008 2847 
Q 3125 2591 3125 2103 
L 3125 0 
L 2563 0 
L 2563 2103 
Q 2563 2525 2380 2717 
Q 2197 2909 1863 2909 
Q 1613 2909 1392 2779 
Q 1172 2650 1078 2428 
Q 984 2206 984 1816 
L 984 0 
L 422 0 
z
" transform="scale(0.015625)"/>
      <path id="ArialMT-79" d="M 397 -1278 
L 334 -750 
Q 519 -800 656 -800 
Q 844 -800 956 -737 
Q 1069 -675 1141 -563 
Q 1194 -478 1313 -144 
Q 1328 -97 1363 -6 
L 103 3319 
L 709 3319 
L 1400 1397 
Q 1534 1031 1641 628 
Q 1738 1016 1872 1384 
L 2581 3319 
L 3144 3319 
L 1881 -56 
Q 1678 -603 1566 -809 
Q 1416 -1088 1222 -1217 
Q 1028 -1347 759 -1347 
Q 597 -1347 397 -1278 
z
" transform="scale(0.015625)"/>
      <path id="ArialMT-27" d="M 425 2959 
L 281 3816 
L 281 4581 
L 922 4581 
L 922 3816 
L 772 2959 
L 425 2959 
z
" transform="scale(0.015625)"/>
     </defs>
     <use xlink:href="#ArialMT-54"/>
     <use xlink:href="#ArialMT-68" x="61.083984"/>
     <use xlink:href="#ArialMT-69" x="116.699219"/>
     <use xlink:href="#ArialMT-73" x="138.916016"/>
     <use xlink:href="#ArialMT-20" x="188.916016"/>
     <use xlink:href="#ArialMT-50" x="216.699219"/>
     <use xlink:href="#ArialMT-72" x="283.398438"/>
     <use xlink:href="#ArialMT-6f" x="316.699219"/>
     <use xlink:href="#ArialMT-70" x="372.314453"/>
     <use xlink:href="#ArialMT-65" x="427.929688"/>
     <use xlink:href="#ArialMT-72" x="483.544922"/>
     <use xlink:href="#ArialMT-74" x="516.845703"/>
     <use xlink:href="#ArialMT-79" x="544.628906"/>
     <use xlink:href="#ArialMT-27" x="594.628906"/>
     <use xlink:href="#ArialMT-73" x="613.720703"/>
     <use xlink:href="#ArialMT-20" x="663.720703"/>
     <use xlink:href="#ArialMT-43" x="691.503906"/>
     <use xlink:href="#ArialMT-6f" x="763.720703"/>
     <use xlink:href="#ArialMT-6d" x="819.335938"/>
     <use xlink:href="#ArialMT-70" x="902.636719"/>
     <use xlink:href="#ArialMT-65" x="958.251953"/>
     <use xlink:href="#ArialMT-74" x="1013.867188"/>
     <use xlink:href="#ArialMT-69" x="1041.650391"/>
     <use xlink:href="#ArialMT-74" x="1063.867188"/>
     <use xlink:href="#ArialMT-69" x="1091.650391"/>
     <use xlink:href="#ArialMT-76" x="1113.867188"/>
     <use xlink:href="#ArialMT-65" x="1163.867188"/>
     <use xlink:href="#ArialMT-6e" x="1219.482422"/>
     <use xlink:href="#ArialMT-65" x="1275.097656"/>
     <use xlink:href="#ArialMT-73" x="1330.712891"/>
     <use xlink:href="#ArialMT-73" x="1380.712891"/>
     <use xlink:href="#ArialMT-20" x="1430.712891"/>
    </g>
    <!--  vs. Other Domestic Retail REIT Properties -->
    <g style="fill: #262626" transform="translate(171.850625 43.455) scale(0.2 -0.2)">
     <defs>
      <path id="ArialMT-2e" d="M 581 0 
L 581 641 
L 1222 641 
L 1222 0 
L 581 0 
z
" transform="scale(0.015625)"/>
      <path id="ArialMT-4f" d="M 309 2231 
Q 309 3372 921 4017 
Q 1534 4663 2503 4663 
Q 3138 4663 3647 4359 
Q 4156 4056 4423 3514 
Q 4691 2972 4691 2284 
Q 4691 1588 4409 1038 
Q 4128 488 3612 205 
Q 3097 -78 2500 -78 
Q 1853 -78 1343 234 
Q 834 547 571 1087 
Q 309 1628 309 2231 
z
M 934 2222 
Q 934 1394 1379 917 
Q 1825 441 2497 441 
Q 3181 441 3623 922 
Q 4066 1403 4066 2288 
Q 4066 2847 3877 3264 
Q 3688 3681 3323 3911 
Q 2959 4141 2506 4141 
Q 1863 4141 1398 3698 
Q 934 3256 934 2222 
z
" transform="scale(0.015625)"/>
      <path id="ArialMT-44" d="M 494 0 
L 494 4581 
L 2072 4581 
Q 2606 4581 2888 4516 
Q 3281 4425 3559 4188 
Q 3922 3881 4101 3404 
Q 4281 2928 4281 2316 
Q 4281 1794 4159 1391 
Q 4038 988 3847 723 
Q 3656 459 3429 307 
Q 3203 156 2883 78 
Q 2563 0 2147 0 
L 494 0 
z
M 1100 541 
L 2078 541 
Q 2531 541 2789 625 
Q 3047 709 3200 863 
Q 3416 1078 3536 1442 
Q 3656 1806 3656 2325 
Q 3656 3044 3420 3430 
Q 3184 3816 2847 3947 
Q 2603 4041 2063 4041 
L 1100 4041 
L 1100 541 
z
" transform="scale(0.015625)"/>
      <path id="ArialMT-63" d="M 2588 1216 
L 3141 1144 
Q 3050 572 2676 248 
Q 2303 -75 1759 -75 
Q 1078 -75 664 370 
Q 250 816 250 1647 
Q 250 2184 428 2587 
Q 606 2991 970 3192 
Q 1334 3394 1763 3394 
Q 2303 3394 2647 3120 
Q 2991 2847 3088 2344 
L 2541 2259 
Q 2463 2594 2264 2762 
Q 2066 2931 1784 2931 
Q 1359 2931 1093 2626 
Q 828 2322 828 1663 
Q 828 994 1084 691 
Q 1341 388 1753 388 
Q 2084 388 2306 591 
Q 2528 794 2588 1216 
z
" transform="scale(0.015625)"/>
     </defs>
     <use xlink:href="#ArialMT-20"/>
     <use xlink:href="#ArialMT-76" x="27.783203"/>
     <use xlink:href="#ArialMT-73" x="77.783203"/>
     <use xlink:href="#ArialMT-2e" x="127.783203"/>
     <use xlink:href="#ArialMT-20" x="155.566406"/>
     <use xlink:href="#ArialMT-4f" x="183.349609"/>
     <use xlink:href="#ArialMT-74" x="261.132812"/>
     <use xlink:href="#ArialMT-68" x="288.916016"/>
     <use xlink:href="#ArialMT-65" x="344.53125"/>
     <use xlink:href="#ArialMT-72" x="400.146484"/>
     <use xlink:href="#ArialMT-20" x="433.447266"/>
     <use xlink:href="#ArialMT-44" x="461.230469"/>
     <use xlink:href="#ArialMT-6f" x="533.447266"/>
     <use xlink:href="#ArialMT-6d" x="589.0625"/>
     <use xlink:href="#ArialMT-65" x="672.363281"/>
     <use xlink:href="#ArialMT-73" x="727.978516"/>
     <use xlink:href="#ArialMT-74" x="777.978516"/>
     <use xlink:href="#ArialMT-69" x="805.761719"/>
     <use xlink:href="#ArialMT-63" x="827.978516"/>
     <use xlink:href="#ArialMT-20" x="877.978516"/>
     <use xlink:href="#ArialMT-52" x="905.761719"/>
     <use xlink:href="#ArialMT-65" x="977.978516"/>
     <use xlink:href="#ArialMT-74" x="1033.59375"/>
     <use xlink:href="#ArialMT-61" x="1061.376953"/>
     <use xlink:href="#ArialMT-69" x="1116.992188"/>
     <use xlink:href="#ArialMT-6c" x="1139.208984"/>
     <use xlink:href="#ArialMT-20" x="1161.425781"/>
     <use xlink:href="#ArialMT-52" x="1189.208984"/>
     <use xlink:href="#ArialMT-45" x="1261.425781"/>
     <use xlink:href="#ArialMT-49" x="1328.125"/>
     <use xlink:href="#ArialMT-54" x="1355.908203"/>
     <use xlink:href="#ArialMT-20" x="1415.242188"/>
     <use xlink:href="#ArialMT-50" x="1443.025391"/>
     <use xlink:href="#ArialMT-72" x="1509.724609"/>
     <use xlink:href="#ArialMT-6f" x="1543.025391"/>
     <use xlink:href="#ArialMT-70" x="1598.640625"/>
     <use xlink:href="#ArialMT-65" x="1654.255859"/>
     <use xlink:href="#ArialMT-72" x="1709.871094"/>
     <use xlink:href="#ArialMT-74" x="1743.171875"/>
     <use xlink:href="#ArialMT-69" x="1770.955078"/>
     <use xlink:href="#ArialMT-65" x="1793.171875"/>
     <use xlink:href="#ArialMT-73" x="1848.787109"/>
    </g>
   </g>
   <g id="legend_1">
    <g id="line2d_17">
     <path d="M 389.52625 62.234688 
L 399.52625 62.234688 
L 409.52625 62.234688 
" style="fill: none; stroke: #ffd700; stroke-width: 1.5; stroke-linecap: round"/>
    </g>
    <g id="text_17">
     <!-- Distribution of Competitiveness Across Retail REITs Nationwide -->
     <g style="fill: #262626" transform="translate(417.52625 65.734688) scale(0.1 -0.1)">
      <defs>
       <path id="ArialMT-62" d="M 941 0 
L 419 0 
L 419 4581 
L 981 4581 
L 981 2947 
Q 1338 3394 1891 3394 
Q 2197 3394 2470 3270 
Q 2744 3147 2920 2923 
Q 3097 2700 3197 2384 
Q 3297 2069 3297 1709 
Q 3297 856 2875 390 
Q 2453 -75 1863 -75 
Q 1275 -75 941 416 
L 941 0 
z
M 934 1684 
Q 934 1088 1097 822 
Q 1363 388 1816 388 
Q 2184 388 2453 708 
Q 2722 1028 2722 1663 
Q 2722 2313 2464 2622 
Q 2206 2931 1841 2931 
Q 1472 2931 1203 2611 
Q 934 2291 934 1684 
z
" transform="scale(0.015625)"/>
       <path id="ArialMT-75" d="M 2597 0 
L 2597 488 
Q 2209 -75 1544 -75 
Q 1250 -75 995 37 
Q 741 150 617 320 
Q 494 491 444 738 
Q 409 903 409 1263 
L 409 3319 
L 972 3319 
L 972 1478 
Q 972 1038 1006 884 
Q 1059 663 1231 536 
Q 1403 409 1656 409 
Q 1909 409 2131 539 
Q 2353 669 2445 892 
Q 2538 1116 2538 1541 
L 2538 3319 
L 3100 3319 
L 3100 0 
L 2597 0 
z
" transform="scale(0.015625)"/>
       <path id="ArialMT-77" d="M 1034 0 
L 19 3319 
L 600 3319 
L 1128 1403 
L 1325 691 
Q 1338 744 1497 1375 
L 2025 3319 
L 2603 3319 
L 3100 1394 
L 3266 759 
L 3456 1400 
L 4025 3319 
L 4572 3319 
L 3534 0 
L 2950 0 
L 2422 1988 
L 2294 2553 
L 1622 0 
L 1034 0 
z
" transform="scale(0.015625)"/>
       <path id="ArialMT-64" d="M 2575 0 
L 2575 419 
Q 2259 -75 1647 -75 
Q 1250 -75 917 144 
Q 584 363 401 755 
Q 219 1147 219 1656 
Q 219 2153 384 2558 
Q 550 2963 881 3178 
Q 1213 3394 1622 3394 
Q 1922 3394 2156 3267 
Q 2391 3141 2538 2938 
L 2538 4581 
L 3097 4581 
L 3097 0 
L 2575 0 
z
M 797 1656 
Q 797 1019 1065 703 
Q 1334 388 1700 388 
Q 2069 388 2326 689 
Q 2584 991 2584 1609 
Q 2584 2291 2321 2609 
Q 2059 2928 1675 2928 
Q 1300 2928 1048 2622 
Q 797 2316 797 1656 
z
" transform="scale(0.015625)"/>
      </defs>
      <use xlink:href="#ArialMT-44"/>
      <use xlink:href="#ArialMT-69" x="72.216797"/>
      <use xlink:href="#ArialMT-73" x="94.433594"/>
      <use xlink:href="#ArialMT-74" x="144.433594"/>
      <use xlink:href="#ArialMT-72" x="172.216797"/>
      <use xlink:href="#ArialMT-69" x="205.517578"/>
      <use xlink:href="#ArialMT-62" x="227.734375"/>
      <use xlink:href="#ArialMT-75" x="283.349609"/>
      <use xlink:href="#ArialMT-74" x="338.964844"/>
      <use xlink:href="#ArialMT-69" x="366.748047"/>
      <use xlink:href="#ArialMT-6f" x="388.964844"/>
      <use xlink:href="#ArialMT-6e" x="444.580078"/>
      <use xlink:href="#ArialMT-20" x="500.195312"/>
      <use xlink:href="#ArialMT-6f" x="527.978516"/>
      <use xlink:href="#ArialMT-66" x="583.59375"/>
      <use xlink:href="#ArialMT-20" x="611.376953"/>
      <use xlink:href="#ArialMT-43" x="639.160156"/>
      <use xlink:href="#ArialMT-6f" x="711.376953"/>
      <use xlink:href="#ArialMT-6d" x="766.992188"/>
      <use xlink:href="#ArialMT-70" x="850.292969"/>
      <use xlink:href="#ArialMT-65" x="905.908203"/>
      <use xlink:href="#ArialMT-74" x="961.523438"/>
      <use xlink:href="#ArialMT-69" x="989.306641"/>
      <use xlink:href="#ArialMT-74" x="1011.523438"/>
      <use xlink:href="#ArialMT-69" x="1039.306641"/>
      <use xlink:href="#ArialMT-76" x="1061.523438"/>
      <use xlink:href="#ArialMT-65" x="1111.523438"/>
      <use xlink:href="#ArialMT-6e" x="1167.138672"/>
      <use xlink:href="#ArialMT-65" x="1222.753906"/>
      <use xlink:href="#ArialMT-73" x="1278.369141"/>
      <use xlink:href="#ArialMT-73" x="1328.369141"/>
      <use xlink:href="#ArialMT-20" x="1378.369141"/>
      <use xlink:href="#ArialMT-41" x="1400.652344"/>
      <use xlink:href="#ArialMT-63" x="1467.351562"/>
      <use xlink:href="#ArialMT-72" x="1517.351562"/>
      <use xlink:href="#ArialMT-6f" x="1550.652344"/>
      <use xlink:href="#ArialMT-73" x="1606.267578"/>
      <use xlink:href="#ArialMT-73" x="1656.267578"/>
      <use xlink:href="#ArialMT-20" x="1706.267578"/>
      <use xlink:href="#ArialMT-52" x="1734.050781"/>
      <use xlink:href="#ArialMT-65" x="1806.267578"/>
      <use xlink:href="#ArialMT-74" x="1861.882812"/>
      <use xlink:href="#ArialMT-61" x="1889.666016"/>
      <use xlink:href="#ArialMT-69" x="1945.28125"/>
      <use xlink:href="#ArialMT-6c" x="1967.498047"/>
      <use xlink:href="#ArialMT-20" x="1989.714844"/>
      <use xlink:href="#ArialMT-52" x="2017.498047"/>
      <use xlink:href="#ArialMT-45" x="2089.714844"/>
      <use xlink:href="#ArialMT-49" x="2156.414062"/>
      <use xlink:href="#ArialMT-54" x="2184.197266"/>
      <use xlink:href="#ArialMT-73" x="2234.15625"/>
      <use xlink:href="#ArialMT-20" x="2284.15625"/>
      <use xlink:href="#ArialMT-4e" x="2311.939453"/>
      <use xlink:href="#ArialMT-61" x="2384.15625"/>
      <use xlink:href="#ArialMT-74" x="2439.771484"/>
      <use xlink:href="#ArialMT-69" x="2467.554688"/>
      <use xlink:href="#ArialMT-6f" x="2489.771484"/>
      <use xlink:href="#ArialMT-6e" x="2545.386719"/>
      <use xlink:href="#ArialMT-77" x="2601.001953"/>
      <use xlink:href="#ArialMT-69" x="2673.21875"/>
      <use xlink:href="#ArialMT-64" x="2695.435547"/>
      <use xlink:href="#ArialMT-65" x="2751.050781"/>
     </g>
    </g>
    <g id="line2d_18">
     <path d="M 389.52625 76.501875 
L 399.52625 76.501875 
L 409.52625 76.501875 
" style="fill: none; stroke-dasharray: 7.4,3.2; stroke-dashoffset: 0; stroke: #ffffff; stroke-width: 2"/>
    </g>
    <g id="text_18">
     <!-- This Property's Competitiveness -->
     <g style="fill: #262626" transform="translate(417.52625 80.001875) scale(0.1 -0.1)">
      <use xlink:href="#ArialMT-54"/>
      <use xlink:href="#ArialMT-68" x="61.083984"/>
      <use xlink:href="#ArialMT-69" x="116.699219"/>
      <use xlink:href="#ArialMT-73" x="138.916016"/>
      <use xlink:href="#ArialMT-20" x="188.916016"/>
      <use xlink:href="#ArialMT-50" x="216.699219"/>
      <use xlink:href="#ArialMT-72" x="283.398438"/>
      <use xlink:href="#ArialMT-6f" x="316.699219"/>
      <use xlink:href="#ArialMT-70" x="372.314453"/>
      <use xlink:href="#ArialMT-65" x="427.929688"/>
      <use xlink:href="#ArialMT-72" x="483.544922"/>
      <use xlink:href="#ArialMT-74" x="516.845703"/>
      <use xlink:href="#ArialMT-79" x="544.628906"/>
      <use xlink:href="#ArialMT-27" x="594.628906"/>
      <use xlink:href="#ArialMT-73" x="613.720703"/>
      <use xlink:href="#ArialMT-20" x="663.720703"/>
      <use xlink:href="#ArialMT-43" x="691.503906"/>
      <use xlink:href="#ArialMT-6f" x="763.720703"/>
      <use xlink:href="#ArialMT-6d" x="819.335938"/>
      <use xlink:href="#ArialMT-70" x="902.636719"/>
      <use xlink:href="#ArialMT-65" x="958.251953"/>
      <use xlink:href="#ArialMT-74" x="1013.867188"/>
      <use xlink:href="#ArialMT-69" x="1041.650391"/>
      <use xlink:href="#ArialMT-74" x="1063.867188"/>
      <use xlink:href="#ArialMT-69" x="1091.650391"/>
      <use xlink:href="#ArialMT-76" x="1113.867188"/>
      <use xlink:href="#ArialMT-65" x="1163.867188"/>
      <use xlink:href="#ArialMT-6e" x="1219.482422"/>
      <use xlink:href="#ArialMT-65" x="1275.097656"/>
      <use xlink:href="#ArialMT-73" x="1330.712891"/>
      <use xlink:href="#ArialMT-73" x="1380.712891"/>
     </g>
    </g>
   </g>
  </g>
  <g id="text_19">
   <!-- This graph shows how competitive most US Retail REIT properties are. Your property is highlighted by the vertical line. The peak represents the average Competitiveness. -->
   <g style="fill: #ffffff" transform="translate(18.1875 375.257) scale(0.09 -0.09)">
    <defs>
     <path id="ArialMT-55" d="M 3500 4581 
L 4106 4581 
L 4106 1934 
Q 4106 1244 3950 837 
Q 3794 431 3386 176 
Q 2978 -78 2316 -78 
Q 1672 -78 1262 144 
Q 853 366 678 786 
Q 503 1206 503 1934 
L 503 4581 
L 1109 4581 
L 1109 1938 
Q 1109 1341 1220 1058 
Q 1331 775 1601 622 
Q 1872 469 2263 469 
Q 2931 469 3215 772 
Q 3500 1075 3500 1938 
L 3500 4581 
z
" transform="scale(0.015625)"/>
     <path id="ArialMT-53" d="M 288 1472 
L 859 1522 
Q 900 1178 1048 958 
Q 1197 738 1509 602 
Q 1822 466 2213 466 
Q 2559 466 2825 569 
Q 3091 672 3220 851 
Q 3350 1031 3350 1244 
Q 3350 1459 3225 1620 
Q 3100 1781 2813 1891 
Q 2628 1963 1997 2114 
Q 1366 2266 1113 2400 
Q 784 2572 623 2826 
Q 463 3081 463 3397 
Q 463 3744 659 4045 
Q 856 4347 1234 4503 
Q 1613 4659 2075 4659 
Q 2584 4659 2973 4495 
Q 3363 4331 3572 4012 
Q 3781 3694 3797 3291 
L 3216 3247 
Q 3169 3681 2898 3903 
Q 2628 4125 2100 4125 
Q 1550 4125 1298 3923 
Q 1047 3722 1047 3438 
Q 1047 3191 1225 3031 
Q 1400 2872 2139 2705 
Q 2878 2538 3153 2413 
Q 3553 2228 3743 1945 
Q 3934 1663 3934 1294 
Q 3934 928 3725 604 
Q 3516 281 3123 101 
Q 2731 -78 2241 -78 
Q 1619 -78 1198 103 
Q 778 284 539 648 
Q 300 1013 288 1472 
z
" transform="scale(0.015625)"/>
     <path id="ArialMT-59" d="M 1784 0 
L 1784 1941 
L 19 4581 
L 756 4581 
L 1659 3200 
Q 1909 2813 2125 2425 
Q 2331 2784 2625 3234 
L 3513 4581 
L 4219 4581 
L 2391 1941 
L 2391 0 
L 1784 0 
z
" transform="scale(0.015625)"/>
     <path id="ArialMT-6b" d="M 425 0 
L 425 4581 
L 988 4581 
L 988 1969 
L 2319 3319 
L 3047 3319 
L 1778 2088 
L 3175 0 
L 2481 0 
L 1384 1697 
L 988 1316 
L 988 0 
L 425 0 
z
" transform="scale(0.015625)"/>
    </defs>
    <use xlink:href="#ArialMT-54"/>
    <use xlink:href="#ArialMT-68" x="61.083984"/>
    <use xlink:href="#ArialMT-69" x="116.699219"/>
    <use xlink:href="#ArialMT-73" x="138.916016"/>
    <use xlink:href="#ArialMT-20" x="188.916016"/>
    <use xlink:href="#ArialMT-67" x="216.699219"/>
    <use xlink:href="#ArialMT-72" x="272.314453"/>
    <use xlink:href="#ArialMT-61" x="305.615234"/>
    <use xlink:href="#ArialMT-70" x="361.230469"/>
    <use xlink:href="#ArialMT-68" x="416.845703"/>
    <use xlink:href="#ArialMT-20" x="472.460938"/>
    <use xlink:href="#ArialMT-73" x="500.244141"/>
    <use xlink:href="#ArialMT-68" x="550.244141"/>
    <use xlink:href="#ArialMT-6f" x="605.859375"/>
    <use xlink:href="#ArialMT-77" x="661.474609"/>
    <use xlink:href="#ArialMT-73" x="733.691406"/>
    <use xlink:href="#ArialMT-20" x="783.691406"/>
    <use xlink:href="#ArialMT-68" x="811.474609"/>
    <use xlink:href="#ArialMT-6f" x="867.089844"/>
    <use xlink:href="#ArialMT-77" x="922.705078"/>
    <use xlink:href="#ArialMT-20" x="994.921875"/>
    <use xlink:href="#ArialMT-63" x="1022.705078"/>
    <use xlink:href="#ArialMT-6f" x="1072.705078"/>
    <use xlink:href="#ArialMT-6d" x="1128.320312"/>
    <use xlink:href="#ArialMT-70" x="1211.621094"/>
    <use xlink:href="#ArialMT-65" x="1267.236328"/>
    <use xlink:href="#ArialMT-74" x="1322.851562"/>
    <use xlink:href="#ArialMT-69" x="1350.634766"/>
    <use xlink:href="#ArialMT-74" x="1372.851562"/>
    <use xlink:href="#ArialMT-69" x="1400.634766"/>
    <use xlink:href="#ArialMT-76" x="1422.851562"/>
    <use xlink:href="#ArialMT-65" x="1472.851562"/>
    <use xlink:href="#ArialMT-20" x="1528.466797"/>
    <use xlink:href="#ArialMT-6d" x="1556.25"/>
    <use xlink:href="#ArialMT-6f" x="1639.550781"/>
    <use xlink:href="#ArialMT-73" x="1695.166016"/>
    <use xlink:href="#ArialMT-74" x="1745.166016"/>
    <use xlink:href="#ArialMT-20" x="1772.949219"/>
    <use xlink:href="#ArialMT-55" x="1800.732422"/>
    <use xlink:href="#ArialMT-53" x="1872.949219"/>
    <use xlink:href="#ArialMT-20" x="1939.648438"/>
    <use xlink:href="#ArialMT-52" x="1967.431641"/>
    <use xlink:href="#ArialMT-65" x="2039.648438"/>
    <use xlink:href="#ArialMT-74" x="2095.263672"/>
    <use xlink:href="#ArialMT-61" x="2123.046875"/>
    <use xlink:href="#ArialMT-69" x="2178.662109"/>
    <use xlink:href="#ArialMT-6c" x="2200.878906"/>
    <use xlink:href="#ArialMT-20" x="2223.095703"/>
    <use xlink:href="#ArialMT-52" x="2250.878906"/>
    <use xlink:href="#ArialMT-45" x="2323.095703"/>
    <use xlink:href="#ArialMT-49" x="2389.794922"/>
    <use xlink:href="#ArialMT-54" x="2417.578125"/>
    <use xlink:href="#ArialMT-20" x="2476.912109"/>
    <use xlink:href="#ArialMT-70" x="2504.695312"/>
    <use xlink:href="#ArialMT-72" x="2560.310547"/>
    <use xlink:href="#ArialMT-6f" x="2593.611328"/>
    <use xlink:href="#ArialMT-70" x="2649.226562"/>
    <use xlink:href="#ArialMT-65" x="2704.841797"/>
    <use xlink:href="#ArialMT-72" x="2760.457031"/>
    <use xlink:href="#ArialMT-74" x="2793.757812"/>
    <use xlink:href="#ArialMT-69" x="2821.541016"/>
    <use xlink:href="#ArialMT-65" x="2843.757812"/>
    <use xlink:href="#ArialMT-73" x="2899.373047"/>
    <use xlink:href="#ArialMT-20" x="2949.373047"/>
    <use xlink:href="#ArialMT-61" x="2977.15625"/>
    <use xlink:href="#ArialMT-72" x="3032.771484"/>
    <use xlink:href="#ArialMT-65" x="3066.072266"/>
    <use xlink:href="#ArialMT-2e" x="3121.6875"/>
    <use xlink:href="#ArialMT-20" x="3149.470703"/>
    <use xlink:href="#ArialMT-59" x="3175.503906"/>
    <use xlink:href="#ArialMT-6f" x="3233.078125"/>
    <use xlink:href="#ArialMT-75" x="3288.693359"/>
    <use xlink:href="#ArialMT-72" x="3344.308594"/>
    <use xlink:href="#ArialMT-20" x="3377.609375"/>
    <use xlink:href="#ArialMT-70" x="3405.392578"/>
    <use xlink:href="#ArialMT-72" x="3461.007812"/>
    <use xlink:href="#ArialMT-6f" x="3494.308594"/>
    <use xlink:href="#ArialMT-70" x="3549.923828"/>
    <use xlink:href="#ArialMT-65" x="3605.539062"/>
    <use xlink:href="#ArialMT-72" x="3661.154297"/>
    <use xlink:href="#ArialMT-74" x="3694.455078"/>
    <use xlink:href="#ArialMT-79" x="3722.238281"/>
    <use xlink:href="#ArialMT-20" x="3772.238281"/>
    <use xlink:href="#ArialMT-69" x="3800.021484"/>
    <use xlink:href="#ArialMT-73" x="3822.238281"/>
    <use xlink:href="#ArialMT-20" x="3872.238281"/>
    <use xlink:href="#ArialMT-68" x="3900.021484"/>
    <use xlink:href="#ArialMT-69" x="3955.636719"/>
    <use xlink:href="#ArialMT-67" x="3977.853516"/>
    <use xlink:href="#ArialMT-68" x="4033.46875"/>
    <use xlink:href="#ArialMT-6c" x="4089.083984"/>
    <use xlink:href="#ArialMT-69" x="4111.300781"/>
    <use xlink:href="#ArialMT-67" x="4133.517578"/>
    <use xlink:href="#ArialMT-68" x="4189.132812"/>
    <use xlink:href="#ArialMT-74" x="4244.748047"/>
    <use xlink:href="#ArialMT-65" x="4272.53125"/>
    <use xlink:href="#ArialMT-64" x="4328.146484"/>
    <use xlink:href="#ArialMT-20" x="4383.761719"/>
    <use xlink:href="#ArialMT-62" x="4411.544922"/>
    <use xlink:href="#ArialMT-79" x="4467.160156"/>
    <use xlink:href="#ArialMT-20" x="4517.160156"/>
    <use xlink:href="#ArialMT-74" x="4544.943359"/>
    <use xlink:href="#ArialMT-68" x="4572.726562"/>
    <use xlink:href="#ArialMT-65" x="4628.341797"/>
    <use xlink:href="#ArialMT-20" x="4683.957031"/>
    <use xlink:href="#ArialMT-76" x="4711.740234"/>
    <use xlink:href="#ArialMT-65" x="4761.740234"/>
    <use xlink:href="#ArialMT-72" x="4817.355469"/>
    <use xlink:href="#ArialMT-74" x="4850.65625"/>
    <use xlink:href="#ArialMT-69" x="4878.439453"/>
    <use xlink:href="#ArialMT-63" x="4900.65625"/>
    <use xlink:href="#ArialMT-61" x="4950.65625"/>
    <use xlink:href="#ArialMT-6c" x="5006.271484"/>
    <use xlink:href="#ArialMT-20" x="5028.488281"/>
    <use xlink:href="#ArialMT-6c" x="5056.271484"/>
    <use xlink:href="#ArialMT-69" x="5078.488281"/>
    <use xlink:href="#ArialMT-6e" x="5100.705078"/>
    <use xlink:href="#ArialMT-65" x="5156.320312"/>
    <use xlink:href="#ArialMT-2e" x="5211.935547"/>
    <use xlink:href="#ArialMT-20" x="5239.71875"/>
    <use xlink:href="#ArialMT-54" x="5265.751953"/>
    <use xlink:href="#ArialMT-68" x="5326.835938"/>
    <use xlink:href="#ArialMT-65" x="5382.451172"/>
    <use xlink:href="#ArialMT-20" x="5438.066406"/>
    <use xlink:href="#ArialMT-70" x="5465.849609"/>
    <use xlink:href="#ArialMT-65" x="5521.464844"/>
    <use xlink:href="#ArialMT-61" x="5577.080078"/>
    <use xlink:href="#ArialMT-6b" x="5632.695312"/>
    <use xlink:href="#ArialMT-20" x="5682.695312"/>
    <use xlink:href="#ArialMT-72" x="5710.478516"/>
    <use xlink:href="#ArialMT-65" x="5743.779297"/>
    <use xlink:href="#ArialMT-70" x="5799.394531"/>
    <use xlink:href="#ArialMT-72" x="5855.009766"/>
    <use xlink:href="#ArialMT-65" x="5888.310547"/>
    <use xlink:href="#ArialMT-73" x="5943.925781"/>
    <use xlink:href="#ArialMT-65" x="5993.925781"/>
    <use xlink:href="#ArialMT-6e" x="6049.541016"/>
    <use xlink:href="#ArialMT-74" x="6105.15625"/>
    <use xlink:href="#ArialMT-73" x="6132.939453"/>
    <use xlink:href="#ArialMT-20" x="6182.939453"/>
    <use xlink:href="#ArialMT-74" x="6210.722656"/>
    <use xlink:href="#ArialMT-68" x="6238.505859"/>
    <use xlink:href="#ArialMT-65" x="6294.121094"/>
    <use xlink:href="#ArialMT-20" x="6349.736328"/>
    <use xlink:href="#ArialMT-61" x="6377.519531"/>
    <use xlink:href="#ArialMT-76" x="6433.134766"/>
    <use xlink:href="#ArialMT-65" x="6483.134766"/>
    <use xlink:href="#ArialMT-72" x="6538.75"/>
    <use xlink:href="#ArialMT-61" x="6572.050781"/>
    <use xlink:href="#ArialMT-67" x="6627.666016"/>
    <use xlink:href="#ArialMT-65" x="6683.28125"/>
    <use xlink:href="#ArialMT-20" x="6738.896484"/>
    <use xlink:href="#ArialMT-43" x="6766.679688"/>
    <use xlink:href="#ArialMT-6f" x="6838.896484"/>
    <use xlink:href="#ArialMT-6d" x="6894.511719"/>
    <use xlink:href="#ArialMT-70" x="6977.8125"/>
    <use xlink:href="#ArialMT-65" x="7033.427734"/>
    <use xlink:href="#ArialMT-74" x="7089.042969"/>
    <use xlink:href="#ArialMT-69" x="7116.826172"/>
    <use xlink:href="#ArialMT-74" x="7139.042969"/>
    <use xlink:href="#ArialMT-69" x="7166.826172"/>
    <use xlink:href="#ArialMT-76" x="7189.042969"/>
    <use xlink:href="#ArialMT-65" x="7239.042969"/>
    <use xlink:href="#ArialMT-6e" x="7294.658203"/>
    <use xlink:href="#ArialMT-65" x="7350.273438"/>
    <use xlink:href="#ArialMT-73" x="7405.888672"/>
    <use xlink:href="#ArialMT-73" x="7455.888672"/>
    <use xlink:href="#ArialMT-2e" x="7505.888672"/>
   </g>
  </g>
 </g>
 <defs>
  <clipPath id="pc020a0d82f">
   <rect x="16.260938" y="49.455" width="690.92" height="270.142"/>
  </clipPath>
 </defs>
</svg>
